<svg width="14" height="14" viewBox="0 0 14 14" fill="none" xmlns="http://www.w3.org/2000/svg">
<path d="M5.095 5.70857V3.57143C5.095 3.19255 5.2405 2.82919 5.49949 2.56128C5.75848 2.29337 6.10975 2.14286 6.47602 2.14286C6.84229 2.14286 7.19356 2.29337 7.45255 2.56128C7.71154 2.82919 7.85704 3.19255 7.85704 3.57143V5.70857C8.52545 5.24571 8.96185 4.46286 8.96185 3.57143C8.96185 2.14857 7.85151 1 6.47602 1C5.10053 1 3.99019 2.14857 3.99019 3.57143C3.99019 4.46286 4.42659 5.24571 5.095 5.70857ZM8.13324 7.12C7.97857 7.04 7.81284 7 7.6416 7H7.30463V3.57143C7.30463 3.09714 6.93452 2.71429 6.47602 2.71429C6.01752 2.71429 5.64741 3.09714 5.64741 3.57143V9.70857L3.74713 9.29714C3.54274 9.25143 3.3273 9.32 3.17815 9.47429C2.94062 9.72571 2.94062 10.1257 3.17815 10.3771L5.3933 12.6686C5.60322 12.88 5.88495 13 6.17772 13H9.5474C10.0998 13 10.5638 12.5829 10.6412 12.0171L10.9892 9.46286C11.0555 8.97714 10.8124 8.49714 10.3871 8.28L8.13324 7.12V7.12Z" fill="#575757"/>
</svg>
