<svg width="14" height="14" viewBox="0 0 14 14" fill="none" xmlns="http://www.w3.org/2000/svg">
<path d="M13.125 7.875H11.375C11.138 7.875 10.9329 7.79069 10.7598 7.62207C10.5866 7.45345 10.5 7.24609 10.5 7C10.5 6.75391 10.5866 6.54655 10.7598 6.37793C10.9329 6.20931 11.138 6.125 11.375 6.125H13.125C13.3711 6.125 13.5785 6.20931 13.7471 6.37793C13.9157 6.54655 14 6.75391 14 7C14 7.24609 13.9157 7.45345 13.7471 7.62207C13.5785 7.79069 13.3711 7.875 13.125 7.875ZM10.7461 4.49805C10.5729 4.67122 10.3633 4.75781 10.1172 4.75781C9.87109 4.75781 9.66146 4.67122 9.48828 4.49805C9.3151 4.32487 9.22852 4.11523 9.22852 3.86914C9.22852 3.62305 9.3151 3.41341 9.48828 3.24023L10.7461 1.99609C10.9102 1.82292 11.1152 1.73633 11.3613 1.73633C11.6074 1.73633 11.8171 1.82292 11.9902 1.99609C12.1634 2.16927 12.25 2.37891 12.25 2.625C12.25 2.87109 12.1634 3.07617 11.9902 3.24023L10.7461 4.49805ZM7 14C6.75391 14 6.54655 13.9157 6.37793 13.7471C6.20931 13.5785 6.125 13.3711 6.125 13.125V11.375C6.125 11.138 6.21159 10.9329 6.38477 10.7598C6.55794 10.5866 6.7653 10.5 7.00684 10.5C7.24837 10.5 7.45345 10.5866 7.62207 10.7598C7.79069 10.9329 7.875 11.138 7.875 11.375V13.125C7.875 13.3711 7.79069 13.5785 7.62207 13.7471C7.45345 13.9157 7.24609 14 7 14ZM7.00684 3.5C6.7653 3.5 6.55794 3.41341 6.38477 3.24023C6.21159 3.06706 6.125 2.86198 6.125 2.625V0.875C6.125 0.628906 6.21159 0.421549 6.38477 0.25293C6.55794 0.0843099 6.76302 0 7 0C7.23698 0 7.44206 0.0843099 7.61523 0.25293C7.78841 0.421549 7.875 0.628906 7.875 0.875V2.625C7.875 2.87109 7.79069 3.07845 7.62207 3.24707C7.45345 3.41569 7.24837 3.5 7.00684 3.5ZM3.24023 11.9902C3.07617 12.1634 2.87109 12.25 2.625 12.25C2.37891 12.25 2.16927 12.1634 1.99609 11.9902C1.82292 11.8171 1.73633 11.6074 1.73633 11.3613C1.73633 11.1152 1.82292 10.9102 1.99609 10.7461L3.24023 9.48828C3.41341 9.3151 3.62305 9.22852 3.86914 9.22852C4.11523 9.22852 4.32487 9.3151 4.49805 9.48828C4.67122 9.66146 4.75781 9.87109 4.75781 10.1172C4.75781 10.3633 4.67122 10.5729 4.49805 10.7461L3.24023 11.9902ZM3.24023 4.49805L1.99609 3.24023C1.82292 3.07617 1.73633 2.87109 1.73633 2.625C1.73633 2.37891 1.82292 2.16927 1.99609 1.99609C2.16927 1.82292 2.37891 1.73633 2.625 1.73633C2.87109 1.73633 3.07617 1.82292 3.24023 1.99609L4.49805 3.24023C4.67122 3.41341 4.75781 3.62305 4.75781 3.86914C4.75781 4.11523 4.67122 4.32487 4.49805 4.49805C4.32487 4.67122 4.11523 4.75781 3.86914 4.75781C3.62305 4.75781 3.41341 4.67122 3.24023 4.49805ZM3.5 7.00684C3.5 7.24837 3.41341 7.45345 3.24023 7.62207C3.06706 7.79069 2.86198 7.875 2.625 7.875H0.875C0.628906 7.875 0.421549 7.79069 0.25293 7.62207C0.0843099 7.45345 0 7.24609 0 7C0 6.75391 0.0843099 6.54655 0.25293 6.37793C0.421549 6.20931 0.628906 6.125 0.875 6.125H2.625C2.86198 6.125 3.06706 6.21159 3.24023 6.38477C3.41341 6.55794 3.5 6.7653 3.5 7.00684ZM10.7461 9.48828L11.9902 10.7461C12.1634 10.9102 12.25 11.1152 12.25 11.3613C12.25 11.6074 12.1634 11.8171 11.9902 11.9902C11.8171 12.1634 11.6074 12.25 11.3613 12.25C11.1152 12.25 10.9102 12.1634 10.7461 11.9902L9.48828 10.7461C9.3151 10.5729 9.22852 10.3633 9.22852 10.1172C9.22852 9.87109 9.3151 9.66146 9.48828 9.48828C9.66146 9.3151 9.87109 9.22852 10.1172 9.22852C10.3633 9.22852 10.5729 9.3151 10.7461 9.48828Z" fill="white"/>
</svg>
