<svg width="14" height="14" viewBox="0 0 14 14" fill="none" xmlns="http://www.w3.org/2000/svg">
<g clip-path="url(#clip0)">
<path d="M10.2946 9.30833C9.41624 8.49333 8.26908 8 7.01252 8C5.75596 8 4.6088 8.49333 3.72889 9.31C3.70459 9.33336 3.68972 9.36585 3.68739 9.40065C3.68505 9.43545 3.69545 9.46986 3.71639 9.49667L4.27903 10.2117C4.32435 10.2683 4.40406 10.275 4.4572 10.2267C5.13862 9.58667 6.03259 9.2 7.01252 9.2C7.99245 9.2 8.88642 9.58667 9.56784 10.225C9.62098 10.2733 9.70069 10.2667 9.74601 10.21L10.3087 9.495C10.3524 9.44 10.3462 9.35667 10.2946 9.30833ZM12.1294 6.97333C10.7431 5.74167 8.95988 5 7.01252 5C5.06516 5 3.2819 5.74167 1.89406 6.97333C1.86867 6.99617 1.85278 7.02878 1.84985 7.06407C1.84692 7.09935 1.85719 7.13443 1.87843 7.16167L2.44107 7.87667C2.48483 7.93333 2.56454 7.94 2.61611 7.89333C3.8086 6.83667 5.34179 6.2 7.01252 6.2C8.68325 6.2 10.2164 6.83667 11.4074 7.89333C11.4605 7.94 11.5386 7.93333 11.5824 7.87667L12.145 7.16167C12.1888 7.105 12.1826 7.02 12.1294 6.97333ZM13.9533 4.65667C12.056 2.99667 9.62723 2 6.98126 2C4.35248 2 1.93938 2.98333 0.046722 4.62333C0.0337188 4.63447 0.0229374 4.64828 0.0150126 4.66393C0.00708789 4.67958 0.00218006 4.69676 0.000578032 4.71447C-0.00102399 4.73218 0.000712215 4.75004 0.00568444 4.76702C0.0106567 4.784 0.0187643 4.79975 0.0295301 4.81333L0.59217 5.52833C0.635931 5.58333 0.714076 5.59167 0.765651 5.54667C2.46451 4.07833 4.62599 3.2 6.98126 3.2C9.35373 3.2 11.5293 4.09167 13.2328 5.57833C13.286 5.625 13.3641 5.61667 13.4079 5.56L13.9705 4.845C14.0158 4.78833 14.008 4.70333 13.9533 4.65667ZM5.99664 11.9333C5.99664 12.2162 6.10202 12.4875 6.28961 12.6876C6.47719 12.8876 6.73161 13 6.99689 13C7.26217 13 7.51659 12.8876 7.70417 12.6876C7.89176 12.4875 7.99714 12.2162 7.99714 11.9333C7.99714 11.6504 7.89176 11.3791 7.70417 11.1791C7.51659 10.979 7.26217 10.8667 6.99689 10.8667C6.73161 10.8667 6.47719 10.979 6.28961 11.1791C6.10202 11.3791 5.99664 11.6504 5.99664 11.9333Z" fill="white"/>
</g>
<defs>
<clipPath id="clip0">
<rect width="14" height="14" fill="white"/>
</clipPath>
</defs>
</svg>
