<svg width="14" height="14" viewBox="0 0 14 14" fill="none" xmlns="http://www.w3.org/2000/svg">
<path d="M11.9981 3.14201C11.9981 3.14201 12.1601 2.66201 11.8121 2.32601C11.4941 2.01401 11.0801 2.18201 11.0801 2.18201C10.7141 2.36201 7.62409 4.26401 6.47809 5.52401C5.96209 6.10001 5.24209 7.79801 5.82409 8.41601C6.37609 9.00401 8.20009 8.31401 8.69809 7.81601C9.93409 6.58001 11.8241 3.51401 11.9981 3.14201ZM1.84009 11.59C3.26209 10.654 2.71609 9.54401 3.77809 8.80601C4.33609 8.41601 5.11009 8.43401 5.62609 8.98001C6.00409 9.38201 6.10609 10.522 5.53009 11.056C4.58809 11.926 3.13009 11.986 1.84009 11.59Z" fill="white"/>
</svg>
