<svg width="14" height="14" viewBox="0 0 14 14" fill="none" xmlns="http://www.w3.org/2000/svg">
<path fill-rule="evenodd" clip-rule="evenodd" d="M10.0181 3.84775L4.37433 6.67L4.03833 5.99875L9.68208 3.17725L10.0181 3.84775ZM9.68208 10.8227L4.03833 8.00125L4.37508 7.33L10.0188 10.1522L9.68283 10.8227H9.68208Z" fill="#575757"/>
<path fill-rule="evenodd" clip-rule="evenodd" d="M11.125 4.75C11.6223 4.75 12.0992 4.55246 12.4508 4.20083C12.8025 3.84919 13 3.37228 13 2.875C13 2.37772 12.8025 1.90081 12.4508 1.54917C12.0992 1.19754 11.6223 1 11.125 1C10.6277 1 10.1508 1.19754 9.79918 1.54917C9.44754 1.90081 9.25 2.37772 9.25 2.875C9.25 3.37228 9.44754 3.84919 9.79918 4.20083C10.1508 4.55246 10.6277 4.75 11.125 4.75ZM11.125 13C11.6223 13 12.0992 12.8025 12.4508 12.4508C12.8025 12.0992 13 11.6223 13 11.125C13 10.6277 12.8025 10.1508 12.4508 9.79918C12.0992 9.44754 11.6223 9.25 11.125 9.25C10.6277 9.25 10.1508 9.44754 9.79918 9.79918C9.44754 10.1508 9.25 10.6277 9.25 11.125C9.25 11.6223 9.44754 12.0992 9.79918 12.4508C10.1508 12.8025 10.6277 13 11.125 13ZM2.875 8.875C3.37228 8.875 3.84919 8.67746 4.20083 8.32583C4.55246 7.97419 4.75 7.49728 4.75 7C4.75 6.50272 4.55246 6.02581 4.20083 5.67417C3.84919 5.32254 3.37228 5.125 2.875 5.125C2.37772 5.125 1.90081 5.32254 1.54917 5.67417C1.19754 6.02581 1 6.50272 1 7C1 7.49728 1.19754 7.97419 1.54917 8.32583C1.90081 8.67746 2.37772 8.875 2.875 8.875Z" fill="#575757"/>
</svg>
