<svg width="14" height="14" viewBox="0 0 14 14" fill="none" xmlns="http://www.w3.org/2000/svg">
<path d="M13.0568 13.9997C12.8885 14.0048 12.7235 13.9499 12.5895 13.8442C12.4554 13.7385 12.3603 13.5883 12.3199 13.4187C11.9881 12.0549 11.2575 10.8312 10.2283 9.91546C9.1992 8.99976 7.92202 8.43704 6.57222 8.30458V9.16076C6.5721 9.42853 6.49583 9.69031 6.35295 9.91332C6.21008 10.1363 6.00695 10.3106 5.76902 10.4144C5.511 10.5375 5.22422 10.5806 4.94315 10.5385C4.66209 10.4965 4.39872 10.3711 4.18472 10.1775L0.456092 6.80628C0.313112 6.67997 0.198279 6.52296 0.119531 6.3461C0.0407836 6.16924 0 5.97674 0 5.78192C0 5.58711 0.0407836 5.39461 0.119531 5.21775C0.198279 5.04089 0.313112 4.88388 0.456092 4.75757L4.18472 1.37874C4.40153 1.18175 4.66927 1.05504 4.95479 1.01428C5.24031 0.973514 5.53108 1.0205 5.79112 1.14941C6.02906 1.25321 6.23218 1.42752 6.37506 1.65053C6.51793 1.87354 6.59421 2.13532 6.59433 2.40309V3.29749C8.59586 3.45803 10.4667 4.391 11.8377 5.91231C13.2086 7.43362 13.9802 9.43276 14 11.5152C13.999 12.157 13.9223 12.7963 13.7716 13.4187C13.7312 13.5883 13.6361 13.7385 13.502 13.8442C13.3679 13.9499 13.203 14.0048 13.0347 13.9997H13.0568Z" fill="white"/>
</svg>
