<?xml version="1.0" standalone="no"?>
<!DOCTYPE svg PUBLIC "-//W3C//DTD SVG 1.1//EN"
  "http://www.w3.org/Graphics/SVG/1.1/DTD/svg11.dtd">
<svg width="298.989013671875mm" height="247mm" viewBox="-259.989013671875 249 298.989013671875 247" xmlns="http://www.w3.org/2000/svg" version="1.1">
	<title>svgOutput</title>
	<desc>made with tinkercad</desc>
<path d="M -99.98899841308594 454.99798583984375 L -100.98899841308594 454.99798583984375 L -101.98899841308594 454.99798583984375 L -102.99199676513672 454.99798583984375 L -102.99199676513672 465.00299072265625 L -101.98899841308594 465.00299072265625 L -100.98899841308594 465.00299072265625 L -99.98899841308594 465.00299072265625 L -99.98899841308594 475.00201416015625 L -100.98899841308594 475.00201416015625 L -101.98899841308594 475.00201416015625 L -102.99199676513672 475.00201416015625 L -103.99099731445312 475.00201416015625 L -106.0479965209961 475.00201416015625 L -107.99199676513672 475.00201416015625 L -107.99199676513672 484 L -110.98899841308594 484 L -111.98899841308594 484 L -112.98899841308594 484 L -112.98899841308594 429 L -111.98899841308594 429 L -110.98899841308594 429 L -107.99199676513672 429 L -107.99199676513672 429.00201416015625 L -107.99199676513672 444.00299072265625 L -106.0479965209961 444.00299072265625 L -103.99099731445312 444.00299072265625 L -103.99099731445312 429.00201416015625 L -102.99199676513672 429.00201416015625 L -101.98899841308594 429.00201416015625 L -100.98899841308594 429.00201416015625 L -99.99199676513672 429.00201416015625 L -99.99199676513672 429 L -99.98899841308594 429 L -99.98899841308594 429.00201416015625 L -99.98899841308594 434.99700927734375 L -100.98899841308594 434.99700927734375 L -101.98899841308594 434.99700927734375 L -102.99199676513672 434.99700927734375 L -102.99199676513672 445.00201416015625 L -101.98899841308594 445.00201416015625 L -100.98899841308594 445.00201416015625 L -99.98899841308594 445.00201416015625 L -99.98899841308594 454.99798583984375 M -98.98899841308594 428 L -100.98899841308594 428 L -100.98899841308594 282 L -97.0199966430664 282 L -97.0199966430664 301.00299072265625 L -94.01799774169922 301.00299072265625 L -94.01799774169922 308.99798583984375 L -95.98899841308594 308.99798583984375 L -97.0199966430664 308.99798583984375 L -97.0199966430664 391.00299072265625 L -95.98899841308594 391.00299072265625 L -94.01799774169922 391.00299072265625 L -94.01799774169922 398.99798583984375 L -95.98899841308594 398.99798583984375 L -97.0199966430664 398.99798583984375 L -97.0199966430664 428 L -98.98899841308594 428 M -107.94499969482422 311.00299072265625 L -106.0479965209961 311.00299072265625 L -104.94300079345703 311.00299072265625 L -104.94300079345703 282 L -101.98899841308594 282 L -101.98899841308594 428 L -104.94300079345703 428 L -104.94300079345703 408.99798583984375 L -106.0479965209961 408.99798583984375 L -107.94499969482422 408.99798583984375 L -107.94499969482422 401.00299072265625 L -106.0479965209961 401.00299072265625 L -104.94300079345703 401.00299072265625 L -104.94300079345703 318.99798583984375 L -106.0479965209961 318.99798583984375 L -107.94499969482422 318.99798583984375 L -107.94499969482422 311.00299072265625 M -107.94499969482422 391.00299072265625 L -106.0479965209961 391.00299072265625 L -106.0479965209961 398.99798583984375 L -107.94499969482422 398.99798583984375 L -109.05000305175781 398.99798583984375 L -109.05000305175781 428 L -110.98899841308594 428 L -110.98899841308594 282 L -109.05000305175781 282 L -109.05000305175781 301.00299072265625 L -106.0479965209961 301.00299072265625 L -106.0479965209961 308.99798583984375 L -107.94499969482422 308.99798583984375 L -109.05000305175781 308.99798583984375 L -109.05000305175781 391.00299072265625 L -107.94499969482422 391.00299072265625 M -95.98899841308594 401.00299072265625 L -94.01799774169922 401.00299072265625 L -92.98699951171875 401.00299072265625 L -92.98699951171875 318.99798583984375 L -94.01799774169922 318.99798583984375 L -95.98899841308594 318.99798583984375 L -95.98899841308594 311.00299072265625 L -94.01799774169922 311.00299072265625 L -92.98699951171875 311.00299072265625 L -92.98699951171875 282 L -88.00399780273438 282 L -88.00399780273438 428 L -92.98699951171875 428 L -92.98699951171875 408.99798583984375 L -94.01799774169922 408.99798583984375 L -95.98899841308594 408.99798583984375 L -95.98899841308594 401.00299072265625 M -79.96700286865234 391.00299072265625 L -77.98899841308594 391.00299072265625 L -77.98899841308594 398.99798583984375 L -79.96700286865234 398.99798583984375 L -80.99099731445312 398.99798583984375 L -80.99099731445312 428 L -83.98899841308594 428 L -86.98899841308594 428 L -86.98899841308594 282 L -80.99099731445312 282 L -80.99099731445312 301.00299072265625 L -77.98899841308594 301.00299072265625 L -77.98899841308594 308.99798583984375 L -79.96700286865234 308.99798583984375 L -80.99099731445312 308.99798583984375 L -80.99099731445312 391.00299072265625 L -79.96700286865234 391.00299072265625 M -83.98899841308594 475.00201416015625 L -83.98899841308594 429 L -77.98899841308594 429 L -76.99199676513672 429 L -74.99199676513672 429 L -74.99199676513672 444.00299072265625 L -71.99199676513672 444.00299072265625 L -71.99199676513672 445.00201416015625 L -71.99099731445312 445.00201416015625 L -69.98899841308594 445.00201416015625 L -68.99199676513672 445.00201416015625 L -68.99199676513672 454.99798583984375 L -69.98899841308594 454.99798583984375 L -71.99099731445312 454.99798583984375 L -71.99199676513672 454.99798583984375 L -71.99199676513672 465.00299072265625 L -71.99099731445312 465.00299072265625 L -69.98899841308594 465.00299072265625 L -68.99199676513672 465.00299072265625 L -68.99199676513672 475.00201416015625 L -69.98899841308594 475.00201416015625 L -71.99099731445312 475.00201416015625 L -71.99199676513672 475.00201416015625 L -74.99199676513672 475.00201416015625 L -76.99199676513672 475.00201416015625 L -76.99199676513672 484 L -77.98899841308594 484 L -83.98899841308594 484 L -83.98899841308594 475.00201416015625 M -0.9869999885559082 267.9230041503906 L -0.9869999885559082 266 L -0.9869999885559082 265 L -0.9869999885559082 264.9200134277344 L -41.98699951171875 264.9200134277344 L -41.98699951171875 263 L 27.01099967956543 263 L 36.01100158691406 263 L 36.01100158691406 264.9200134277344 L 27.01099967956543 264.9200134277344 L 7.007999897003174 264.9200134277344 L 7.007999897003174 265 L 7.007999897003174 266 L 7.007999897003174 267.9230041503906 L -0.9869999885559082 267.9230041503906 M -31.992000579833984 269.00299072265625 L -31.992000579833984 271.9339904785156 L -109.98899841308594 271.9339904785156 L -109.98899841308594 269.00299072265625 L -80.98699951171875 269.00299072265625 L -80.98699951171875 267.9230041503906 L -80.98699951171875 266 L -72.99199676513672 266 L -72.99199676513672 269.00299072265625 L -31.992000579833984 269.00299072265625 M 17.007999420166016 266 L 17.007999420166016 269.00299072265625 L 27.01099967956543 269.00299072265625 L 36.01100158691406 269.00299072265625 L 36.01100158691406 271.9339904785156 L 27.01099967956543 271.9339904785156 L -21.98699951171875 271.9339904785156 L -21.98699951171875 269.00299072265625 L 9.012999534606934 269.00299072265625 L 9.012999534606934 267.9230041503906 L 9.012999534606934 266 L 17.007999420166016 266 M -90.98699951171875 267.9230041503906 L -90.98699951171875 266 L -90.98699951171875 265 L -90.98699951171875 264.9200134277344 L -109.98899841308594 264.9200134277344 L -109.98899841308594 263 L -51.992000579833984 263 L -51.992000579833984 264.9200134277344 L -82.99199676513672 264.9200134277344 L -82.99199676513672 265 L -82.99199676513672 266 L -82.99199676513672 267.9230041503906 L -90.98699951171875 267.9230041503906 M -0.9869999885559082 280 L -0.9869999885559082 276.99798583984375 L -82.99199676513672 276.99798583984375 L -82.99199676513672 280 L -86.98899841308594 280 L -88.00399780273438 280 L -90.98699951171875 280 L -90.98699951171875 276.99798583984375 L -109.98899841308594 276.99798583984375 L -109.98899841308594 273.05499267578125 L 27.01099967956543 273.05499267578125 L 36.01100158691406 273.05499267578125 L 36.01100158691406 276.99798583984375 L 27.01099967956543 276.99798583984375 L 7.007999897003174 276.99798583984375 L 7.007999897003174 280 L -0.9869999885559082 280 M -255.98899841308594 423.00299072265625 L -254.98899841308594 423.00299072265625 L -252.98899841308594 423.00299072265625 L -240.99200439453125 423.00299072265625 L -234.98899841308594 423.00299072265625 L -231.99200439453125 423.00299072265625 L -231.98699951171875 423.00299072265625 L -231.98699951171875 414.99798583984375 L -231.99200439453125 414.99798583984375 L -234.98899841308594 414.99798583984375 L -240.99200439453125 414.99798583984375 L -252.98899841308594 414.99798583984375 L -254.98899841308594 414.99798583984375 L -255.98899841308594 414.99798583984375 L -255.98899841308594 412 L -258.989013671875 412 L -258.989013671875 397 L -255.98899841308594 397 L -255.98899841308594 382 L -258.989013671875 382 L -258.989013671875 367 L -255.98899841308594 367 L -255.98899841308594 352 L -258.989013671875 352 L -258.989013671875 337 L -255.98899841308594 337 L -255.98899841308594 333.00299072265625 L -254.98899841308594 333.00299072265625 L -252.98899841308594 333.00299072265625 L -240.99200439453125 333.00299072265625 L -234.98899841308594 333.00299072265625 L -231.99200439453125 333.00299072265625 L -231.98699951171875 333.00299072265625 L -231.98699951171875 324.99798583984375 L -231.99200439453125 324.99798583984375 L -234.98899841308594 324.99798583984375 L -240.99200439453125 324.99798583984375 L -252.98899841308594 324.99798583984375 L -254.98899841308594 324.99798583984375 L -255.98899841308594 324.99798583984375 L -255.98899841308594 322 L -258.989013671875 322 L -258.989013671875 307 L -255.98899841308594 307 L -255.98899841308594 296 L -254.98899841308594 296 L -252.98899841308594 296 L -252.98899841308594 293 L -234.98899841308594 293 L -234.98899841308594 296 L -231.99200439453125 296 L -228.98899841308594 296 L -228.98899841308594 306.99700927734375 L -231.99200439453125 306.99700927734375 L -231.99200439453125 322.00201416015625 L -231.98699951171875 322.00201416015625 L -228.98899841308594 322.00201416015625 L -228.98899841308594 336.99700927734375 L -231.98699951171875 336.99700927734375 L -231.99200439453125 336.99700927734375 L -231.99200439453125 352.00201416015625 L -228.98899841308594 352.00201416015625 L -228.98899841308594 366.99798583984375 L -231.99200439453125 366.99798583984375 L -231.99200439453125 373.99798583984375 L -234.98899841308594 373.99798583984375 L -240.99200439453125 373.99798583984375 L -240.99200439453125 384.00299072265625 L -234.98899841308594 384.00299072265625 L -231.99200439453125 384.00299072265625 L -231.98699951171875 384.00299072265625 L -231.98699951171875 382.00299072265625 L -228.98899841308594 382.00299072265625 L -228.98899841308594 396.99798583984375 L -231.98699951171875 396.99798583984375 L -231.99200439453125 396.99798583984375 L -231.99200439453125 412.00299072265625 L -231.98699951171875 412.00299072265625 L -228.98899841308594 412.00299072265625 L -228.98899841308594 426.99798583984375 L -231.98699951171875 426.99798583984375 L -231.99200439453125 426.99798583984375 L -231.99200439453125 442 L -234.98899841308594 442 L -234.98899841308594 445 L -252.98899841308594 445 L -252.98899841308594 442 L -254.98899841308594 442 L -258.989013671875 442 L -258.989013671875 427 L -255.98899841308594 427 L -255.98899841308594 423.00299072265625 M -84.98899841308594 434.99700927734375 L -86.98899841308594 434.99700927734375 L -87.99199676513672 434.99700927734375 L -87.99199676513672 445.00201416015625 L -86.98899841308594 445.00201416015625 L -84.98899841308594 445.00201416015625 L -84.98899841308594 454.99798583984375 L -86.98899841308594 454.99798583984375 L -87.99199676513672 454.99798583984375 L -87.99199676513672 465.00299072265625 L -86.98899841308594 465.00299072265625 L -84.98899841308594 465.00299072265625 L -84.98899841308594 475.00201416015625 L -86.98899841308594 475.00201416015625 L -87.99199676513672 475.00201416015625 L -88.00399780273438 475.00201416015625 L -92.99199676513672 475.00201416015625 L -92.99199676513672 484 L -94.01799774169922 484 L -98.98899841308594 484 L -98.98899841308594 475.00201416015625 L -98.98899841308594 429.00201416015625 L -98.98899841308594 429 L -94.01799774169922 429 L -92.99199676513672 429 L -88.00399780273438 429 L -87.99199676513672 429 L -86.98899841308594 429 L -84.98899841308594 429 L -84.98899841308594 434.99700927734375 M -227.98899841308594 293.00299072265625 L -227.88999938964844 293.00299072265625 L -226.98699951171875 293.00299072265625 L -226.98699951171875 290.00299072265625 L -225.98699951171875 290.00299072265625 L -225.98699951171875 287.00299072265625 L -224.98699951171875 287.00299072265625 L -224.98699951171875 284.00299072265625 L -223.98699951171875 284.00299072265625 L -223.98699951171875 281.00299072265625 L -222.98699951171875 281.00299072265625 L -222.98699951171875 278.00299072265625 L -221.98699951171875 278.00299072265625 L -221.98699951171875 275.00299072265625 L -220.98699951171875 275.00299072265625 L -220.98699951171875 272.00299072265625 L -219.98699951171875 272.00299072265625 L -219.98699951171875 271.99798583984375 L -219.98699951171875 269.00299072265625 L -218.98699951171875 269.00299072265625 L -218.98699951171875 266 L -209.0030059814453 266 L -190.49200439453125 266 L -190.49200439453125 269.00299072265625 L -190.38999938964844 269.00299072265625 L -172.48699951171875 269.00299072265625 L -172.48699951171875 266 L -172.38999938964844 266 L -144.99200439453125 266 L -144.98899841308594 266 L -143.99200439453125 266 L -142.99200439453125 266 L -141.99200439453125 266 L -140.99200439453125 266 L -139.99200439453125 266 L -138.99200439453125 266 L -137.99200439453125 266 L -136.99200439453125 266 L -135.98899841308594 266 L -135.98899841308594 268.99798583984375 L -136.99200439453125 268.99798583984375 L -136.99200439453125 271.99798583984375 L -137.99200439453125 271.99798583984375 L -137.99200439453125 274.99798583984375 L -138.99200439453125 274.99798583984375 L -138.99200439453125 277.99798583984375 L -139.99200439453125 277.99798583984375 L -139.99200439453125 280.99798583984375 L -140.99200439453125 280.99798583984375 L -140.99200439453125 283.99798583984375 L -141.99200439453125 283.99798583984375 L -141.99200439453125 286.99798583984375 L -142.99200439453125 286.99798583984375 L -142.99200439453125 289.99798583984375 L -143.99200439453125 289.99798583984375 L -143.99200439453125 290.00299072265625 L -143.99200439453125 292.99798583984375 L -144.98899841308594 292.99798583984375 L -144.99200439453125 292.99798583984375 L -144.99200439453125 296 L -172.38999938964844 296 L -172.48699951171875 296 L -172.48699951171875 292.99798583984375 L -190.38999938964844 292.99798583984375 L -190.49200439453125 292.99798583984375 L -190.49200439453125 296 L -209.0030059814453 296 L -218.98699951171875 296 L -219.98699951171875 296 L -220.98699951171875 296 L -221.98699951171875 296 L -222.98699951171875 296 L -223.98699951171875 296 L -224.98699951171875 296 L -225.98699951171875 296 L -226.98699951171875 296 L -227.88999938964844 296 L -227.98899841308594 296 L -227.98899841308594 293.00299072265625 M -29.98900032043457 452.99798583984375 L -29.98900032043457 434 L -28.48900032043457 434 L -26.989999771118164 434 L -23.9689998626709 434 L -23.9689998626709 434.00201416015625 L -23.9689998626709 489 L -26.989999771118164 489 L -28.48900032043457 489 L -29.98900032043457 489 L -29.98900032043457 479.00299072265625 L -28.48900032043457 479.00299072265625 L -26.989999771118164 479.00299072265625 L -26.989999771118164 468.99798583984375 L -28.48900032043457 468.99798583984375 L -29.98900032043457 468.99798583984375 L -29.98900032043457 459.00299072265625 L -28.48900032043457 459.00299072265625 L -26.989999771118164 459.00299072265625 L -26.989999771118164 452.99798583984375 L -28.48900032043457 452.99798583984375 L -29.98900032043457 452.99798583984375 M 26.01099967956543 284 L 26.01099967956543 430 L 25.01300048828125 430 L 22.009000778198242 430 L 22.007999420166016 430 L 17.01300048828125 430 L 15.51099967956543 430 L 14.008000373840332 430 L 13.996999740600586 430 L 13.996999740600586 421.00201416015625 L 13.012999534606934 421.00201416015625 L 12.996000289916992 421.00201416015625 L 10.008000373840332 421.00201416015625 L 4.982999801635742 421.00201416015625 L 4.982999801635742 430 L -10.48900032043457 430 L -10.48900032043457 433 L -15.991999626159668 433 L -23.9689998626709 433 L -28.48900032043457 433 L -28.48900032043457 430 L -30.992000579833984 430 L -36.94599914550781 430 L -37.94599914550781 430 L -53.98699951171875 430 L -56.98899841308594 430 L -56.98899841308594 415.00299072265625 L -53.98699951171875 415.00299072265625 L -53.98699951171875 399.99798583984375 L -56.98899841308594 399.99798583984375 L -56.98899841308594 385.00201416015625 L -53.98699951171875 385.00201416015625 L -53.98699951171875 369.99700927734375 L -56.98899841308594 369.99700927734375 L -56.98899841308594 355.00201416015625 L -53.98699951171875 355.00201416015625 L -53.98699951171875 339.99700927734375 L -56.98899841308594 339.99700927734375 L -56.98899841308594 325.00201416015625 L -53.98699951171875 325.00201416015625 L -53.98699951171875 309.99700927734375 L -56.98899841308594 309.99700927734375 L -56.98899841308594 295.00201416015625 L -53.98699951171875 295.00201416015625 L -53.98699951171875 284 L -28.48900032043457 284 L -28.48900032043457 281 L -10.48900032043457 281 L -10.48900032043457 284 L 4.982999801635742 284 L 10.008000373840332 284 L 12.996000289916992 284 L 13.012999534606934 284 L 13.996999740600586 284 L 14.008000373840332 284 L 14.008000373840332 295.00201416015625 L 17.01300048828125 295.00201416015625 L 17.01300048828125 284 L 22.007999420166016 284 L 22.009000778198242 284 L 25.01300048828125 284 L 26.01099967956543 284 M -30.992000579833984 486 L -32.9900016784668 486 L -33.9900016784668 486 L -35.98899841308594 486 L -35.98899841308594 476.00299072265625 L -33.9900016784668 476.00299072265625 L -32.9900016784668 476.00299072265625 L -32.9900016784668 465.99798583984375 L -33.9900016784668 465.99798583984375 L -35.98899841308594 465.99798583984375 L -35.98899841308594 456.00299072265625 L -33.9900016784668 456.00299072265625 L -32.9900016784668 456.00299072265625 L -32.9900016784668 449.99798583984375 L -33.9900016784668 449.99798583984375 L -35.98899841308594 449.99798583984375 L -35.98899841308594 431.00201416015625 L -35.98899841308594 431 L -35.987998962402344 431 L -35.987998962402344 431.00201416015625 L -33.9900016784668 431.00201416015625 L -33.9900016784668 446.00299072265625 L -32.9900016784668 446.00299072265625 L -30.992000579833984 446.00299072265625 L -30.992000579833984 486 M -227.98699951171875 256.0329895019531 L -227.88999938964844 256.0329895019531 L -219.99200439453125 256.0329895019531 L -219.99200439453125 259.0360107421875 L -209.0030059814453 259.0360107421875 L -190.38999938964844 259.0360107421875 L -172.38999938964844 259.0360107421875 L -144.98899841308594 259.0360107421875 L -137.98699951171875 259.0360107421875 L -137.98699951171875 257.95599365234375 L -137.98699951171875 256.0329895019531 L -135.98899841308594 256.0329895019531 L -129.99200439453125 256.0329895019531 L -129.99200439453125 259.0360107421875 L -113.00299835205078 259.0360107421875 L -110.98899841308594 259.0360107421875 L -110.98899841308594 259.9779968261719 L -110.98899841308594 261.9119873046875 L -110.98899841308594 263 L -110.98899841308594 265 L -113.00299835205078 265 L -119.98899841308594 265 L -135.98899841308594 265 L -144.98899841308594 265 L -172.38999938964844 265 L -190.38999938964844 265 L -209.0030059814453 265 L -227.88999938964844 265 L -227.98899841308594 265 L -234.98899841308594 265 L -252.98899841308594 265 L -254.98899841308594 265 L -256.989013671875 265 L -256.989013671875 259.0360107421875 L -254.98899841308594 259.0360107421875 L -252.98899841308594 259.0360107421875 L -234.98899841308594 259.0360107421875 L -227.98899841308594 259.0360107421875 L -227.98699951171875 259.0360107421875 L -227.98699951171875 256.0329895019531 M -50.9900016784668 477.00201416015625 L -50.9900016784668 431 L -49.992000579833984 431 L -41.994998931884766 431 L -41.994998931884766 486 L -49.992000579833984 486 L -49.992000579833984 477.00201416015625 L -50.9900016784668 477.00201416015625 M -36.94599914550781 486 L -37.94599914550781 486 L -37.9900016784668 486 L -40.98899841308594 486 L -40.98899841308594 476.00299072265625 L -37.9900016784668 476.00299072265625 L -37.9900016784668 465.99798583984375 L -40.98899841308594 465.99798583984375 L -40.98899841308594 456.00299072265625 L -37.9900016784668 456.00299072265625 L -37.9900016784668 445.99798583984375 L -40.98899841308594 445.99798583984375 L -40.98899841308594 436.00299072265625 L -37.9900016784668 436.00299072265625 L -37.9900016784668 431 L -37.94599914550781 431 L -36.94599914550781 431 L -36.94599914550781 431.00201416015625 L -36.94599914550781 486 M -227.88999938964844 446 L -227.88999938964844 300 L -218.89300537109375 300 L -215.88800048828125 300 L -209.0030059814453 300 L -190.38999938964844 300 L -190.38999938964844 297 L -172.38999938964844 297 L -172.38999938964844 300 L -147.89300537109375 300 L -144.98899841308594 300 L -144.98899841308594 310.99700927734375 L -147.89300537109375 310.99700927734375 L -147.89300537109375 326.00201416015625 L -144.98899841308594 326.00201416015625 L -144.98899841308594 340.99700927734375 L -147.89300537109375 340.99700927734375 L -147.89300537109375 356.00201416015625 L -144.98899841308594 356.00201416015625 L -144.98899841308594 370.99798583984375 L -147.89300537109375 370.99798583984375 L -147.89300537109375 386.00299072265625 L -144.98899841308594 386.00299072265625 L -144.98899841308594 400.99798583984375 L -147.89300537109375 400.99798583984375 L -147.89300537109375 416.00299072265625 L -144.98899841308594 416.00299072265625 L -144.98899841308594 430.99798583984375 L -147.89300537109375 430.99798583984375 L -147.89300537109375 446 L -172.38999938964844 446 L -172.38999938964844 449 L -190.38999938964844 449 L -190.38999938964844 446 L -209.0030059814453 446 L -215.88800048828125 446 L -215.88800048828125 430.99798583984375 L -218.89300537109375 430.99798583984375 L -218.89300537109375 446 L -227.88999938964844 446 M 38 410.99798583984375 L 34.99700164794922 410.99798583984375 L 34.99700164794922 430 L 33.51100158691406 430 L 27.01099967956543 430 L 27.01099967956543 284 L 34.99700164794922 284 L 34.99700164794922 313.00299072265625 L 38 313.00299072265625 L 38 320.99798583984375 L 34.99700164794922 320.99798583984375 L 34.99700164794922 403.00299072265625 L 38 403.00299072265625 L 38 410.99798583984375 M 37.01100158691406 256.9750061035156 L 27.01099967956543 256.9750061035156 L 8.008000373840332 256.9750061035156 L 8.008000373840332 258 L 8.008000373840332 259.9779968261719 L 0.013000000268220901 259.9779968261719 L 0.013000000268220901 258 L 0.013000000268220901 256.9750061035156 L -81.99199676513672 256.9750061035156 L -81.99199676513672 258 L -81.99199676513672 259.9779968261719 L -89.98699951171875 259.9779968261719 L -89.98699951171875 256.9750061035156 L -108.98899841308594 256.9750061035156 L -108.98899841308594 256.0329895019531 L -108.98899841308594 250 L 27.01099967956543 250 L 37.01100158691406 250 L 37.01100158691406 256.9750061035156 M -115.9010009765625 306.99700927734375 L -116.99199676513672 306.99700927734375 L -116.99199676513672 322.00201416015625 L -116.98699951171875 322.00201416015625 L -115.9010009765625 322.00201416015625 L -113.98899841308594 322.00201416015625 L -113.98899841308594 336.99700927734375 L -116.98699951171875 336.99700927734375 L -116.99199676513672 336.99700927734375 L -116.99199676513672 352.00201416015625 L -113.98899841308594 352.00201416015625 L -113.98899841308594 366.99798583984375 L -116.99199676513672 366.99798583984375 L -116.99199676513672 382.00299072265625 L -113.98899841308594 382.00299072265625 L -113.98899841308594 396.99798583984375 L -115.9010009765625 396.99798583984375 L -116.99199676513672 396.99798583984375 L -116.99199676513672 412.00299072265625 L -116.98699951171875 412.00299072265625 L -115.9010009765625 412.00299072265625 L -113.98899841308594 412.00299072265625 L -113.98899841308594 426.99798583984375 L -116.98699951171875 426.99798583984375 L -116.99199676513672 426.99798583984375 L -116.99199676513672 442 L -119.98899841308594 442 L -119.98899841308594 445 L -135.98899841308594 445 L -137.98899841308594 445 L -137.98899841308594 442 L -139.98899841308594 442 L -143.98899841308594 442 L -143.98899841308594 427 L -140.98899841308594 427 L -140.98899841308594 423.00299072265625 L -139.98899841308594 423.00299072265625 L -137.98899841308594 423.00299072265625 L -135.98899841308594 423.00299072265625 L -119.98899841308594 423.00299072265625 L -116.99199676513672 423.00299072265625 L -116.98699951171875 423.00299072265625 L -116.98699951171875 414.99798583984375 L -116.99199676513672 414.99798583984375 L -119.98899841308594 414.99798583984375 L -135.98899841308594 414.99798583984375 L -137.98899841308594 414.99798583984375 L -139.98899841308594 414.99798583984375 L -140.98899841308594 414.99798583984375 L -140.98899841308594 412 L -143.98899841308594 412 L -143.98899841308594 397 L -140.98899841308594 397 L -140.98899841308594 382 L -143.98899841308594 382 L -143.98899841308594 367 L -140.98899841308594 367 L -140.98899841308594 352 L -143.98899841308594 352 L -143.98899841308594 337 L -140.98899841308594 337 L -140.98899841308594 333.00299072265625 L -139.98899841308594 333.00299072265625 L -137.98899841308594 333.00299072265625 L -135.98899841308594 333.00299072265625 L -119.98899841308594 333.00299072265625 L -116.99199676513672 333.00299072265625 L -116.98699951171875 333.00299072265625 L -116.98699951171875 324.99798583984375 L -116.99199676513672 324.99798583984375 L -119.98899841308594 324.99798583984375 L -135.98899841308594 324.99798583984375 L -137.98899841308594 324.99798583984375 L -139.98899841308594 324.99798583984375 L -140.98899841308594 324.99798583984375 L -140.98899841308594 322 L -143.98899841308594 322 L -143.98899841308594 307 L -140.98899841308594 307 L -140.98899841308594 296 L -139.99200439453125 296 L -139.98899841308594 296 L -138.99200439453125 296 L -137.99200439453125 296 L -137.98899841308594 296 L -137.98899841308594 293 L -136.99200439453125 293 L -135.98899841308594 293 L -119.98899841308594 293 L -119.98899841308594 296 L -116.99199676513672 296 L -113.98899841308594 296 L -113.98899841308594 306.99700927734375 L -115.9010009765625 306.99700927734375 M -109.98899841308594 254.95399475097656 L -113.00299835205078 254.95399475097656 L -135.98899841308594 254.95399475097656 L -138.99200439453125 254.95399475097656 L -138.99200439453125 256.0329895019531 L -138.99200439453125 257.95599365234375 L -144.98899841308594 257.95599365234375 L -146.98699951171875 257.95599365234375 L -146.98699951171875 256.0329895019531 L -146.98699951171875 254.95399475097656 L -172.38999938964844 254.95399475097656 L -190.38999938964844 254.95399475097656 L -209.0030059814453 254.95399475097656 L -227.88999938964844 254.95399475097656 L -227.98899841308594 254.95399475097656 L -228.99200439453125 254.95399475097656 L -228.99200439453125 256.0329895019531 L -228.99200439453125 257.95599365234375 L -234.98899841308594 257.95599365234375 L -236.98699951171875 257.95599365234375 L -236.98699951171875 256.0329895019531 L -236.98699951171875 254.95399475097656 L -252.98899841308594 254.95399475097656 L -254.98899841308594 254.95399475097656 L -255.98899841308594 254.95399475097656 L -255.98899841308594 250 L -254.98899841308594 250 L -252.98899841308594 250 L -234.98899841308594 250 L -227.98899841308594 250 L -227.88999938964844 250 L -209.0030059814453 250 L -190.38999938964844 250 L -172.38999938964844 250 L -144.98899841308594 250 L -135.98899841308594 250 L -113.00299835205078 250 L -109.98899841308594 250 L -109.98899841308594 254.95399475097656 M -109.98899841308594 261.9119873046875 L -109.98899841308594 261.00299072265625 L -80.98699951171875 261.00299072265625 L -80.98699951171875 259.9779968261719 L -80.98699951171875 258 L -72.99199676513672 258 L -72.99199676513672 259.9779968261719 L -72.99199676513672 261.00299072265625 L -31.992000579833984 261.00299072265625 L -31.992000579833984 261.9119873046875 L -109.98899841308594 261.9119873046875 M -111.98899841308594 282 L -111.98899841308594 428 L -112.89900207519531 428 L -112.89900207519531 408.99798583984375 L -113.00299835205078 408.99798583984375 L -113.98899841308594 408.99798583984375 L -115.9010009765625 408.99798583984375 L -115.9010009765625 401.00299072265625 L -113.98899841308594 401.00299072265625 L -113.00299835205078 401.00299072265625 L -112.89900207519531 401.00299072265625 L -112.89900207519531 318.99798583984375 L -113.00299835205078 318.99798583984375 L -113.98899841308594 318.99798583984375 L -115.9010009765625 318.99798583984375 L -115.9010009765625 311.00299072265625 L -113.98899841308594 311.00299072265625 L -113.00299835205078 311.00299072265625 L -112.89900207519531 311.00299072265625 L -112.89900207519531 282 L -111.98899841308594 282 M -79.96700286865234 311.00299072265625 L -77.98899841308594 311.00299072265625 L -76.96499633789062 311.00299072265625 L -76.96499633789062 282 L -69.98899841308594 282 L -69.98899841308594 428 L -76.96499633789062 428 L -76.96499633789062 408.99798583984375 L -77.98899841308594 408.99798583984375 L -79.96700286865234 408.99798583984375 L -79.96700286865234 401.00299072265625 L -77.98899841308594 401.00299072265625 L -76.96499633789062 401.00299072265625 L -76.96499633789062 318.99798583984375 L -77.98899841308594 318.99798583984375 L -79.96700286865234 318.99798583984375 L -79.96700286865234 311.00299072265625 M -8.986000061035156 469.99798583984375 L -10.48900032043457 469.99798583984375 L -11.98900032043457 469.99798583984375 L -11.991999626159668 469.99798583984375 L -11.991999626159668 480 L -14.98900032043457 480 L -14.98900032043457 434 L -11.991999626159668 434 L -11.991999626159668 435 L -11.991999626159668 440.00201416015625 L -11.98900032043457 440.00201416015625 L -10.48900032043457 440.00201416015625 L -8.986000061035156 440.00201416015625 L -5.992000102996826 440.00201416015625 L 0.00800000037997961 440.00201416015625 L 0.00800000037997961 440.00299072265625 L 3.010999917984009 440.00299072265625 L 3.010999917984009 449.99798583984375 L 0.00800000037997961 449.99798583984375 L -5.992000102996826 449.99798583984375 L -8.986000061035156 449.99798583984375 L -10.48900032043457 449.99798583984375 L -11.98900032043457 449.99798583984375 L -11.991999626159668 449.99798583984375 L -11.991999626159668 460.00201416015625 L -11.98900032043457 460.00201416015625 L -10.48900032043457 460.00201416015625 L -8.986000061035156 460.00201416015625 L -5.992000102996826 460.00201416015625 L 0.00800000037997961 460.00201416015625 L 0.00800000037997961 460.00299072265625 L 3.010999917984009 460.00299072265625 L 3.010999917984009 469.99798583984375 L 0.00800000037997961 469.99798583984375 L -5.992000102996826 469.99798583984375 L -8.986000061035156 469.99798583984375 M 17.007999420166016 258 L 17.007999420166016 259.9779968261719 L 17.007999420166016 261.00299072265625 L 27.01099967956543 261.00299072265625 L 36.01100158691406 261.00299072265625 L 36.01100158691406 261.9119873046875 L 27.01099967956543 261.9119873046875 L -21.98699951171875 261.9119873046875 L -21.98699951171875 261.00299072265625 L 9.012999534606934 261.00299072265625 L 9.012999534606934 259.9779968261719 L 9.012999534606934 258 L 17.007999420166016 258 M -71.99099731445312 429.00201416015625 L -69.98899841308594 429.00201416015625 L -68.99299621582031 429.00201416015625 L -68.99299621582031 429 L -68.99199676513672 429 L -68.99199676513672 429.00201416015625 L -68.99199676513672 434.99700927734375 L -69.98899841308594 434.99700927734375 L -71.99099731445312 434.99700927734375 L -71.99099731445312 429.00201416015625 M -11.98900032043457 470.00299072265625 L -10.48900032043457 470.00299072265625 L -8.986000061035156 470.00299072265625 L -5.992000102996826 470.00299072265625 L 0.00800000037997961 470.00299072265625 L 3.010999917984009 470.00299072265625 L 3.0139999389648438 470.00299072265625 L 3.0139999389648438 459.99798583984375 L 3.010999917984009 459.99798583984375 L 0.00800000037997961 459.99798583984375 L -5.992000102996826 459.99798583984375 L -8.986000061035156 459.99798583984375 L -10.48900032043457 459.99798583984375 L -11.98900032043457 459.99798583984375 L -11.98900032043457 450.00299072265625 L -10.48900032043457 450.00299072265625 L -8.986000061035156 450.00299072265625 L -5.992000102996826 450.00299072265625 L -5.992000102996826 454.00299072265625 L 0.00800000037997961 454.00299072265625 L 3.010999917984009 454.00299072265625 L 3.0139999389648438 454.00299072265625 L 6.011000156402588 454.00299072265625 L 6.011000156402588 480 L 6.011000156402588 490 L 3.0139999389648438 490 L 3.0139999389648438 480 L 3.0139999389648438 479.99798583984375 L 3.010999917984009 479.99798583984375 L 0.00800000037997961 479.99798583984375 L -5.992000102996826 479.99798583984375 L -8.986000061035156 479.99798583984375 L -10.48900032043457 479.99798583984375 L -11.98900032043457 479.99798583984375 L -11.98900032043457 470.00299072265625 M -22.988000869750977 434 L -22.988000869750977 434.00201416015625 L -19.989999771118164 434.00201416015625 L -19.989999771118164 449.00299072265625 L -15.991999626159668 449.00299072265625 L -15.991999626159668 480 L -15.991999626159668 489 L -19.989999771118164 489 L -22.98900032043457 489 L -22.98900032043457 479.00299072265625 L -19.989999771118164 479.00299072265625 L -19.989999771118164 468.99798583984375 L -22.98900032043457 468.99798583984375 L -22.98900032043457 459.00299072265625 L -19.989999771118164 459.00299072265625 L -19.989999771118164 452.99798583984375 L -22.98900032043457 452.99798583984375 L -22.98900032043457 434.00201416015625 L -22.98900032043457 434 L -22.988000869750977 434 M -51.98899841308594 477.00201416015625 L -54.98899841308594 477.00201416015625 L -56.98899841308594 477.00201416015625 L -58 477.00201416015625 L -59.98899841308594 477.00201416015625 L -59.98899841308594 486 L -67.98600006103516 486 L -67.98600006103516 431 L -59.98899841308594 431 L -58 431 L -56.98899841308594 431 L -54.98899841308594 431 L -51.98899841308594 431 L -51.98899841308594 436.99700927734375 L -54.98899841308594 436.99700927734375 L -54.98899841308594 447.00201416015625 L -51.98899841308594 447.00201416015625 L -51.98899841308594 456.99798583984375 L -54.98899841308594 456.99798583984375 L -54.98899841308594 467.00299072265625 L -51.98899841308594 467.00299072265625 L -51.98899841308594 477.00201416015625 M -58 398.99798583984375 L -61.00199890136719 398.99798583984375 L -61.00199890136719 428 L -67.98600006103516 428 L -68.98899841308594 428 L -68.98899841308594 282 L -61.00199890136719 282 L -61.00199890136719 301.00299072265625 L -58 301.00299072265625 L -58 308.99798583984375 L -61.00199890136719 308.99798583984375 L -61.00199890136719 391.00299072265625 L -58 391.00299072265625 L -58 398.99798583984375 M -144.98899841308594 450 L -144 450 L -143.98899841308594 450 L -143 450 L -142 450 L -139.98899841308594 450 L -137.98899841308594 450 L -135.98899841308594 450 L -126.00499725341797 450 L -126.00499725341797 453.00299072265625 L -125.00499725341797 453.00299072265625 L -125.00499725341797 455.99798583984375 L -125.00499725341797 456.00299072265625 L -124.00499725341797 456.00299072265625 L -124.00499725341797 459.00299072265625 L -123.00499725341797 459.00299072265625 L -123.00499725341797 462.00299072265625 L -122.00499725341797 462.00299072265625 L -122.00499725341797 465.00299072265625 L -121.5 465.00299072265625 L -121.00499725341797 465.00299072265625 L -121.00499725341797 468.00299072265625 L -120.00499725341797 468.00299072265625 L -120.00499725341797 471.00299072265625 L -119.00499725341797 471.00299072265625 L -119.00499725341797 474.00299072265625 L -118.00499725341797 474.00299072265625 L -118.00499725341797 477.00299072265625 L -117.00499725341797 477.00299072265625 L -117.00499725341797 480.00299072265625 L -117.00499725341797 483.00299072265625 L -116.00499725341797 483.00299072265625 L -116.00499725341797 486.00299072265625 L -115.00499725341797 486.00299072265625 L -115.00499725341797 489.00299072265625 L -114.00499725341797 489.00299072265625 L -114.00499725341797 492.00299072265625 L -113.00299835205078 492.00299072265625 L -113.00299835205078 495 L -114.00499725341797 495 L -115.00499725341797 495 L -116.00499725341797 495 L -117.00499725341797 495 L -118.00499725341797 495 L -119.00499725341797 495 L -120.00499725341797 495 L -121.00499725341797 495 L -121.5 495 L -121.5 491.99798583984375 L -122.00499725341797 491.99798583984375 L -123.00499725341797 491.99798583984375 L -124.00499725341797 491.99798583984375 L -125.00499725341797 491.99798583984375 L -126.00499725341797 491.99798583984375 L -139.50599670410156 491.99798583984375 L -139.50599670410156 495 L -142 495 L -142 491.99798583984375 L -143 491.99798583984375 L -143 488.99798583984375 L -144 488.99798583984375 L -144 485.99798583984375 L -145 485.99798583984375 L -145 482.99798583984375 L -146 482.99798583984375 L -146 479.99798583984375 L -153.5 479.99798583984375 L -153.5 476.99798583984375 L -171.50599670410156 476.99798583984375 L -171.50599670410156 479.99798583984375 L -200 479.99798583984375 L -200 476.99798583984375 L -201 476.99798583984375 L -201 474.00299072265625 L -201 473.99798583984375 L -202 473.99798583984375 L -202 470.99798583984375 L -203 470.99798583984375 L -203 467.99798583984375 L -204 467.99798583984375 L -204 464.99798583984375 L -205 464.99798583984375 L -205 461.99798583984375 L -206 461.99798583984375 L -206 458.99798583984375 L -207 458.99798583984375 L -207 455.99798583984375 L -208 455.99798583984375 L -208 452.99798583984375 L -209 452.99798583984375 L -209 450 L -208 450 L -207 450 L -206 450 L -205 450 L -204 450 L -203 450 L -202 450 L -201 450 L -200 450 L -190.38999938964844 450 L -172.38999938964844 450 L -171.50599670410156 450 L -171.50599670410156 453.00299072265625 L -153.5 453.00299072265625 L -153.5 450 L -146 450 L -145 450 L -144.98899841308594 450 M 27.01300048828125 489 L 27.01300048828125 442.99798583984375 L 27.01099967956543 442.99798583984375 L 26.01099967956543 442.99798583984375 L 24.007999420166016 442.99798583984375 L 24.007999420166016 480 L 24.007999420166016 489 L 15.51099967956543 489 L 7.011000156402588 489 L 7.011000156402588 480 L 7.011000156402588 435 L 7.011000156402588 434 L 12.008000373840332 434 L 12.008000373840332 435 L 12.008000373840332 469.99798583984375 L 15.012999534606934 469.99798583984375 L 15.012999534606934 435 L 15.012999534606934 434 L 15.51099967956543 434 L 15.51099967956543 431 L 26.01099967956543 431 L 27.01099967956543 431 L 33.51100158691406 431 L 33.51100158691406 434 L 36.01100158691406 434 L 36.01100158691406 489 L 33.51100158691406 489 L 27.01300048828125 489 M -5.992000102996826 435 L -5.992000102996826 439.99798583984375 L -8.986000061035156 439.99798583984375 L -10.48900032043457 439.99798583984375 L -11.98900032043457 439.99798583984375 L -11.98900032043457 435 L -10.48900032043457 435 L -8.986000061035156 435 L -5.992000102996826 435 M -147.99200439453125 271.99798583984375 L -147.99200439453125 290.00299072265625 L -144.99200439453125 290.00299072265625 L -144.98899841308594 290.00299072265625 L -144.98699951171875 290.00299072265625 L -144.98699951171875 271.99798583984375 L -144.98899841308594 271.99798583984375 L -144.99200439453125 271.99798583984375 L -147.99200439453125 271.99798583984375 M 12.996000289916992 380.99798583984375 L 10.008000373840332 380.99798583984375 L 10.008000373840332 391.00299072265625 L 12.996000289916992 391.00299072265625 L 13.012999534606934 391.00299072265625 L 13.012999534606934 380.99798583984375 L 12.996000289916992 380.99798583984375 M -218.89300537109375 326.00201416015625 L -215.88800048828125 326.00201416015625 L -215.88800048828125 310.99700927734375 L -218.89300537109375 310.99700927734375 L -218.89300537109375 326.00201416015625 M -215.88800048828125 370.99798583984375 L -218.89300537109375 370.99798583984375 L -218.89300537109375 386.00299072265625 L -215.88800048828125 386.00299072265625 L -215.88800048828125 370.99798583984375 M -215.88800048828125 340.99700927734375 L -218.89300537109375 340.99700927734375 L -218.89300537109375 356.00201416015625 L -215.88800048828125 356.00201416015625 L -215.88800048828125 340.99700927734375 M 12.996000289916992 400.99798583984375 L 10.008000373840332 400.99798583984375 L 10.008000373840332 411.00299072265625 L 12.996000289916992 411.00299072265625 L 13.012999534606934 411.00299072265625 L 13.012999534606934 400.99798583984375 L 12.996000289916992 400.99798583984375 M 22.007999420166016 420.00299072265625 L 22.009000778198242 420.00299072265625 L 25.01300048828125 420.00299072265625 L 25.01300048828125 409.99798583984375 L 22.009000778198242 409.99798583984375 L 22.007999420166016 409.99798583984375 L 22.007999420166016 420.00299072265625 M 25.01300048828125 374.99700927734375 L 22.009000778198242 374.99700927734375 L 22.007999420166016 374.99700927734375 L 22.007999420166016 380.00299072265625 L 22.009000778198242 380.00299072265625 L 25.01300048828125 380.00299072265625 L 25.01300048828125 374.99700927734375 M -218.99200439453125 290.00299072265625 L -218.98699951171875 290.00299072265625 L -215.98699951171875 290.00299072265625 L -215.98699951171875 271.99798583984375 L -218.98699951171875 271.99798583984375 L -218.99200439453125 271.99798583984375 L -218.99200439453125 290.00299072265625 M -129.0050048828125 455.99798583984375 L -129.0050048828125 474.00299072265625 L -126.00499725341797 474.00299072265625 L -126 474.00299072265625 L -126 455.99798583984375 L -126.00499725341797 455.99798583984375 L -129.0050048828125 455.99798583984375 M 22.009000778198242 389.99798583984375 L 22.007999420166016 389.99798583984375 L 22.007999420166016 400.00299072265625 L 22.009000778198242 400.00299072265625 L 25.01300048828125 400.00299072265625 L 25.01300048828125 389.99798583984375 L 22.009000778198242 389.99798583984375 M 17.01300048828125 309.99700927734375 L 14.008000373840332 309.99700927734375 L 14.008000373840332 325.00201416015625 L 17.01300048828125 325.00201416015625 L 17.01300048828125 309.99700927734375 M 14.008000373840332 415.00299072265625 L 17.01300048828125 415.00299072265625 L 17.01300048828125 399.99798583984375 L 14.008000373840332 399.99798583984375 L 14.008000373840332 415.00299072265625 M 14.008000373840332 355.00201416015625 L 17.01300048828125 355.00201416015625 L 17.01300048828125 339.99700927734375 L 14.008000373840332 339.99700927734375 L 14.008000373840332 355.00201416015625 M 14.008000373840332 385.00201416015625 L 17.01300048828125 385.00201416015625 L 17.01300048828125 369.99700927734375 L 14.008000373840332 369.99700927734375 L 14.008000373840332 385.00201416015625 M -218.89300537109375 416.00299072265625 L -215.88800048828125 416.00299072265625 L -215.88800048828125 400.99798583984375 L -218.89300537109375 400.99798583984375 L -218.89300537109375 416.00299072265625 M -200.00599670410156 455.99798583984375 L -200.00599670410156 474.00299072265625 L -200 474.00299072265625 L -197 474.00299072265625 L -197 455.99798583984375 L -200 455.99798583984375 L -200.00599670410156 455.99798583984375 z" fill="none" stroke="rgb(255,0,0)" stroke-width="0.001mm" />
</svg>