<?xml version="1.0" standalone="no"?>
<!DOCTYPE svg PUBLIC "-//W3C//DTD SVG 1.1//EN"
  "http://www.w3.org/Graphics/SVG/1.1/DTD/svg11.dtd">
<svg width="143mm" height="76.94699096679688mm" viewBox="-357 347.0530090332031 143 76.94699096679688" xmlns="http://www.w3.org/2000/svg" version="1.1">
	<title>svgOutput</title>
	<desc>made with tinkercad</desc>
<path d="M -215 423 L -356 423 L -356 418.0559997558594 L -356 355.0509948730469 L -356 348.0530090332031 L -215 348.0530090332031 L -215 355.0509948730469 L -215 375.0509948730469 L -215.0019989013672 375.0509948730469 L -230.0019989013672 375.0509948730469 L -230.0019989013672 379.0509948730469 L -215.0019989013672 379.0509948730469 L -215.0019989013672 383.04998779296875 L -215 383.04998779296875 L -215 383.0509948730469 L -215.0019989013672 383.0509948730469 L -234.9980010986328 383.0509948730469 L -234.9980010986328 379.0509948730469 L -234.9980010986328 375.0509948730469 L -234.9980010986328 355.0509948730469 L -345.00299072265625 355.0509948730469 L -345.00299072265625 418.0559997558594 L -234.9980010986328 418.0559997558594 L -234.9980010986328 399.0559997558594 L -234.9980010986328 395.05499267578125 L -234.9980010986328 392.0559997558594 L -215.0019989013672 392.0559997558594 L -215 392.0559997558594 L -215 392.0570068359375 L -215.0019989013672 392.0570068359375 L -215.0019989013672 395.05499267578125 L -230.0019989013672 395.05499267578125 L -230.0019989013672 399.0559997558594 L -215.0019989013672 399.0559997558594 L -215 399.0559997558594 L -215 418.0559997558594 L -215 423 z" fill="none" stroke="rgb(255,0,0)" stroke-width="0.001mm" />
</svg>