<?xml version="1.0" standalone="no"?>
<!DOCTYPE svg PUBLIC "-//W3C//DTD SVG 1.1//EN"
  "http://www.w3.org/Graphics/SVG/1.1/DTD/svg11.dtd">
<svg width="344mm" height="135mm" viewBox="108 305 344 135" xmlns="http://www.w3.org/2000/svg" version="1.1">
	<title>svgOutput</title>
	<desc>made with tinkercad</desc>
<path d="M 360 408 L 360 406.99798583984375 L 360 405.99798583984375 L 360 404.99798583984375 L 360 404.00299072265625 L 360 403.99798583984375 L 360 400.99700927734375 L 360 389.75299072265625 L 363.00299072265625 389.75299072265625 L 363.00299072265625 381.99798583984375 L 363.00299072265625 377.00299072265625 L 363.00299072265625 371.49798583984375 L 360 371.49798583984375 L 360 365.99798583984375 L 360 362.00299072265625 L 360 353.25299072265625 L 363.00299072265625 353.25299072265625 L 363.00299072265625 339.00299072265625 L 363.00299072265625 338.00299072265625 L 369.66900634765625 338.00299072265625 L 369.66900634765625 337.00299072265625 L 369.66900634765625 336.00299072265625 L 369.66900634765625 335 L 376.33099365234375 335 L 376.33099365234375 336.00299072265625 L 376.33099365234375 337.00299072265625 L 376.33099365234375 338.00299072265625 L 382.99798583984375 338.00299072265625 L 382.99798583984375 339.00299072265625 L 382.99798583984375 353.25299072265625 L 386.00299072265625 353.25299072265625 L 386.00299072265625 342.00299072265625 L 386.00299072265625 342.00201416015625 L 388.99798583984375 342.00201416015625 L 388.99798583984375 342.00299072265625 L 392.00299072265625 342.00299072265625 L 392.00299072265625 342.00201416015625 L 392.00299072265625 339.00299072265625 L 392.00299072265625 338.99798583984375 L 389.00299072265625 338.99798583984375 L 389.00299072265625 338.99700927734375 L 386.00299072265625 338.99700927734375 L 386.00299072265625 338.00299072265625 L 386.00299072265625 337.00299072265625 L 386.00299072265625 336.00299072265625 L 388.99798583984375 336.00299072265625 L 388.99798583984375 337.00299072265625 L 391.99798583984375 337.00299072265625 L 391.99798583984375 338.00299072265625 L 394.99798583984375 338.00299072265625 L 394.99798583984375 338.99700927734375 L 394.99798583984375 338.99798583984375 L 394.99798583984375 339.00299072265625 L 394.99798583984375 342.00201416015625 L 394.99798583984375 342.00299072265625 L 394.99798583984375 353.25299072265625 L 394.99798583984375 362.00299072265625 L 398 362.00299072265625 L 398 365.99798583984375 L 398 377.00299072265625 L 398 380 L 398 381.99798583984375 L 394.99798583984375 381.99798583984375 L 394.99798583984375 389.75299072265625 L 394.99798583984375 400.99700927734375 L 394.99798583984375 403.99798583984375 L 394.99798583984375 404.00201416015625 L 394.99798583984375 404.00299072265625 L 394.99798583984375 404.99798583984375 L 391.99798583984375 404.99798583984375 L 391.99798583984375 405.99798583984375 L 388.99798583984375 405.99798583984375 L 388.99798583984375 406.99798583984375 L 385.99798583984375 406.99798583984375 L 385.99798583984375 408 L 383.00299072265625 408 L 383.00299072265625 406.99798583984375 L 383.00299072265625 405.99798583984375 L 383.00299072265625 404.99798583984375 L 376.33099365234375 404.99798583984375 L 376.33099365234375 405.99798583984375 L 376.33099365234375 406.99798583984375 L 376.33099365234375 408 L 369.66900634765625 408 L 369.66900634765625 406.99798583984375 L 369.66900634765625 405.99798583984375 L 369.66900634765625 404.99798583984375 L 362.99798583984375 404.99798583984375 L 362.99798583984375 405.99798583984375 L 362.99798583984375 406.99798583984375 L 362.99798583984375 408 L 360 408 M 320 336.114013671875 L 323.00299072265625 336.114013671875 L 323.00299072265625 335 L 323.00299072265625 321.5530090332031 L 320 321.5530090332031 L 320 307 L 323.00299072265625 307 L 329.66400146484375 307 L 329.66400146484375 310.00299072265625 L 334.99798583984375 310.00299072265625 L 336.33599853515625 310.00299072265625 L 336.33599853515625 307 L 340.00299072265625 307 L 342.99798583984375 307 L 346 307 L 346 321.5530090332031 L 342.99798583984375 321.5530090332031 L 342.99798583984375 335 L 342.99798583984375 336.114013671875 L 346 336.114013671875 L 346 350.66400146484375 L 342.99798583984375 350.66400146484375 L 342.99798583984375 365.2250061035156 L 346 365.2250061035156 L 346 379.7749938964844 L 342.99798583984375 379.7749938964844 L 342.99798583984375 394.33599853515625 L 346 394.33599853515625 L 346 408 L 346 408.885986328125 L 342.99798583984375 408.885986328125 L 342.99798583984375 423.4469909667969 L 346 423.4469909667969 L 346 434.99798583984375 L 342.99798583984375 434.99798583984375 L 342.99798583984375 438 L 340.00299072265625 438 L 336.33599853515625 438 L 336.33599853515625 434.99798583984375 L 334.99798583984375 434.99798583984375 L 329.66400146484375 434.99798583984375 L 329.66400146484375 438 L 323.00299072265625 438 L 323.00299072265625 434.99798583984375 L 320 434.99798583984375 L 320 423.4469909667969 L 323.00299072265625 423.4469909667969 L 323.00299072265625 408.885986328125 L 320 408.885986328125 L 320 408 L 320 394.33599853515625 L 323.00299072265625 394.33599853515625 L 323.00299072265625 379.7749938964844 L 320 379.7749938964844 L 320 365.2250061035156 L 323.00299072265625 365.2250061035156 L 323.00299072265625 350.66400146484375 L 320 350.66400146484375 L 320 336.114013671875 M 127 432.9949951171875 L 127 408 L 127 335 L 127 308 L 131 308 L 131 335 L 131 408 L 131 432.9949951171875 L 127 432.9949951171875 M 451 353.99798583984375 L 447.99798583984375 353.99798583984375 L 447.99798583984375 361.74798583984375 L 447.99798583984375 372.99700927734375 L 447.99798583984375 375.99798583984375 L 447.99798583984375 376.00201416015625 L 447.99798583984375 376.00299072265625 L 447.99798583984375 376.99798583984375 L 444.99798583984375 376.99798583984375 L 444.99798583984375 377.99798583984375 L 441.99798583984375 377.99798583984375 L 441.99798583984375 378.99798583984375 L 439.00299072265625 378.99798583984375 L 439.00299072265625 377.99798583984375 L 439.00299072265625 376.99798583984375 L 439.00299072265625 376.00299072265625 L 442.00299072265625 376.00299072265625 L 442.00299072265625 376.00201416015625 L 445.00299072265625 376.00201416015625 L 445.00299072265625 375.99798583984375 L 445.00299072265625 372.99700927734375 L 439.00299072265625 372.99700927734375 L 439.00299072265625 361.74798583984375 L 435.99798583984375 361.74798583984375 L 435.99798583984375 375.99798583984375 L 435.99798583984375 376.99798583984375 L 429.33099365234375 376.99798583984375 L 429.33099365234375 377.99798583984375 L 429.33099365234375 378.99798583984375 L 429.33099365234375 380 L 422.66900634765625 380 L 422.66900634765625 378.99798583984375 L 422.66900634765625 377.99798583984375 L 422.66900634765625 376.99798583984375 L 416.00299072265625 376.99798583984375 L 416.00299072265625 375.99798583984375 L 416.00299072265625 361.74798583984375 L 413 361.74798583984375 L 413 353.99798583984375 L 413 343.50299072265625 L 416.00299072265625 343.50299072265625 L 416.00299072265625 335 L 416.00299072265625 334.00299072265625 L 416.00299072265625 325.24798583984375 L 413 325.24798583984375 L 413 314.00299072265625 L 413 314.00201416015625 L 413 311.00299072265625 L 413 310.99700927734375 L 413 310.00299072265625 L 413 309.00299072265625 L 413 308.00299072265625 L 413 307 L 415.99798583984375 307 L 415.99798583984375 308.00299072265625 L 415.99798583984375 309.00299072265625 L 415.99798583984375 310.00299072265625 L 422.66900634765625 310.00299072265625 L 422.66900634765625 309.00299072265625 L 422.66900634765625 308.00299072265625 L 422.66900634765625 307 L 429.33099365234375 307 L 429.33099365234375 308.00299072265625 L 429.33099365234375 309.00299072265625 L 429.33099365234375 310.00299072265625 L 436.00299072265625 310.00299072265625 L 436.00299072265625 309.00299072265625 L 436.00299072265625 308.00299072265625 L 436.00299072265625 307 L 438.99798583984375 307 L 438.99798583984375 308.00299072265625 L 441.99798583984375 308.00299072265625 L 441.99798583984375 309.00299072265625 L 444.99798583984375 309.00299072265625 L 444.99798583984375 310.00299072265625 L 447.99798583984375 310.00299072265625 L 447.99798583984375 310.99700927734375 L 447.99798583984375 310.99798583984375 L 447.99798583984375 311.00299072265625 L 447.99798583984375 314.00201416015625 L 447.99798583984375 314.00299072265625 L 447.99798583984375 325.24798583984375 L 447.99798583984375 334.00299072265625 L 451 334.00299072265625 L 451 335 L 451 343.50299072265625 L 451 353.99798583984375 M 246 379.7799987792969 L 249.0030059814453 379.7799987792969 L 249.0030059814453 365.2200012207031 L 246 365.2200012207031 L 246 350.66900634765625 L 249.0030059814453 350.66900634765625 L 249.0030059814453 336.1090087890625 L 246 336.1090087890625 L 246 335 L 246 321.5580139160156 L 249.0030059814453 321.5580139160156 L 249.0030059814453 310.00299072265625 L 264.24798583984375 310.00299072265625 L 264.25201416015625 310.00299072265625 L 264.25201416015625 307 L 282.49798583984375 307 L 282.49798583984375 310.00299072265625 L 282.50299072265625 310.00299072265625 L 300.74798583984375 310.00299072265625 L 300.75299072265625 310.00299072265625 L 300.75299072265625 307 L 315.99798583984375 307 L 315.99798583984375 321.5580139160156 L 319 321.5580139160156 L 319 335 L 319 336.1090087890625 L 315.99798583984375 336.1090087890625 L 315.99798583984375 350.66900634765625 L 319 350.66900634765625 L 319 365.2200012207031 L 315.99798583984375 365.2200012207031 L 315.99798583984375 379.7799987792969 L 319 379.7799987792969 L 319 394.33099365234375 L 315.99798583984375 394.33099365234375 L 315.99798583984375 408 L 315.99798583984375 408.8909912109375 L 319 408.8909912109375 L 319 423.4419860839844 L 315.99798583984375 423.4419860839844 L 315.99798583984375 434.99798583984375 L 300.75299072265625 434.99798583984375 L 300.74798583984375 434.99798583984375 L 300.74798583984375 438 L 282.50299072265625 438 L 282.50299072265625 434.99798583984375 L 264.24798583984375 434.99798583984375 L 264.24798583984375 438 L 249.0030059814453 438 L 249.0030059814453 423.4419860839844 L 246 423.4419860839844 L 246 408.8909912109375 L 249.0030059814453 408.8909912109375 L 249.0030059814453 408 L 249.0030059814453 394.33099365234375 L 246 394.33099365234375 L 246 379.7799987792969 M 145 336.114013671875 L 148.0030059814453 336.114013671875 L 148.0030059814453 335 L 148.0030059814453 321.5530090332031 L 145 321.5530090332031 L 145 310.00299072265625 L 148.0030059814453 310.00299072265625 L 148.0030059814453 307 L 154.66400146484375 307 L 154.66400146484375 310.00299072265625 L 161.33599853515625 310.00299072265625 L 161.33599853515625 307 L 167.9980010986328 307 L 167.9980010986328 310.00299072265625 L 171 310.00299072265625 L 171 321.5530090332031 L 167.9980010986328 321.5530090332031 L 167.9980010986328 335 L 167.9980010986328 336.114013671875 L 171 336.114013671875 L 171 350.66400146484375 L 167.9980010986328 350.66400146484375 L 167.9980010986328 365.2250061035156 L 171 365.2250061035156 L 171 379.7749938964844 L 167.9980010986328 379.7749938964844 L 167.9980010986328 394.33599853515625 L 171 394.33599853515625 L 171 408 L 171 408.885986328125 L 167.9980010986328 408.885986328125 L 167.9980010986328 423.4469909667969 L 171 423.4469909667969 L 171 438 L 167.9980010986328 438 L 161.33599853515625 438 L 161.33599853515625 434.99798583984375 L 154.66400146484375 434.99798583984375 L 154.66400146484375 438 L 148.0030059814453 438 L 145 438 L 145 423.4469909667969 L 148.0030059814453 423.4469909667969 L 148.0030059814453 408.885986328125 L 145 408.885986328125 L 145 408 L 145 394.33599853515625 L 148.0030059814453 394.33599853515625 L 148.0030059814453 379.7749938964844 L 145 379.7749938964844 L 145 365.2250061035156 L 148.0030059814453 365.2250061035156 L 148.0030059814453 350.66400146484375 L 145 350.66400146484375 L 145 336.114013671875 M 132 437 L 132 408 L 132 335 L 132 306 L 134.9980010986328 306 L 134.9980010986328 309.00299072265625 L 137 309.00299072265625 L 137 335 L 137 408 L 137 433.99798583984375 L 134.9980010986328 433.99798583984375 L 134.9980010986328 437 L 132 437 M 412 307 L 412 327 L 412 335 L 412 380 L 412 408 L 412 438 L 406 438 L 390.00299072265625 438 L 390.00299072265625 434.99798583984375 L 369.99798583984375 434.99798583984375 L 369.99798583984375 438 L 353 438 L 347 438 L 347 408 L 347 335 L 347 327 L 347 307 L 369.99798583984375 307 L 369.99798583984375 310.00299072265625 L 390.00299072265625 310.00299072265625 L 390.00299072265625 307 L 412 307 M 112.00199890136719 306 L 115 306 L 115 335 L 115 408 L 115 437 L 112.00199890136719 437 L 112.00199890136719 433.99798583984375 L 109 433.99798583984375 L 109 408 L 109 335 L 109 309.00299072265625 L 112.00199890136719 309.00299072265625 L 112.00199890136719 306 M 118.00199890136719 306 L 121 306 L 121 335 L 121 408 L 121 437 L 118.00199890136719 437 L 118.00199890136719 433.99798583984375 L 116 433.99798583984375 L 116 408 L 116 335 L 116 309.00299072265625 L 118.00199890136719 309.00299072265625 L 118.00199890136719 306 M 122 308 L 126 308 L 126 335 L 126 408 L 126 432.9949951171875 L 122 432.9949951171875 L 122 408 L 122 335 L 122 308 M 172 350.66900634765625 L 175.0030059814453 350.66900634765625 L 175.0030059814453 336.1090087890625 L 172 336.1090087890625 L 172 335 L 172 321.5580139160156 L 175.0030059814453 321.5580139160156 L 175.0030059814453 310.00299072265625 L 190.2469940185547 310.00299072265625 L 190.2519989013672 310.00299072265625 L 190.2519989013672 307 L 208.4969940185547 307 L 208.4969940185547 310.00299072265625 L 208.5019989013672 310.00299072265625 L 226.7480010986328 310.00299072265625 L 226.7519989013672 310.00299072265625 L 226.7519989013672 307 L 241.9980010986328 307 L 241.9980010986328 321.5580139160156 L 245 321.5580139160156 L 245 335 L 245 336.1090087890625 L 241.9980010986328 336.1090087890625 L 241.9980010986328 350.66900634765625 L 245 350.66900634765625 L 245 365.2200012207031 L 241.9980010986328 365.2200012207031 L 241.9980010986328 379.7799987792969 L 245 379.7799987792969 L 245 394.33099365234375 L 241.9980010986328 394.33099365234375 L 241.9980010986328 408 L 241.9980010986328 408.8909912109375 L 245 408.8909912109375 L 245 423.4419860839844 L 241.9980010986328 423.4419860839844 L 241.9980010986328 434.99798583984375 L 226.7519989013672 434.99798583984375 L 226.7480010986328 434.99798583984375 L 226.7480010986328 438 L 208.5019989013672 438 L 208.5019989013672 434.99798583984375 L 190.2469940185547 434.99798583984375 L 190.2469940185547 438 L 175.0030059814453 438 L 175.0030059814453 423.4419860839844 L 172 423.4419860839844 L 172 408.8909912109375 L 175.0030059814453 408.8909912109375 L 175.0030059814453 408 L 175.0030059814453 394.33099365234375 L 172 394.33099365234375 L 172 379.7799987792969 L 175.0030059814453 379.7799987792969 L 175.0030059814453 365.2200012207031 L 172 365.2200012207031 L 172 350.66900634765625 M 138 439 L 138 408 L 138 335 L 138 308 L 140.9969940185547 308 L 140.9969940185547 311.00299072265625 L 144 311.00299072265625 L 144 335 L 144 408 L 144 435.99798583984375 L 140.9969940185547 435.99798583984375 L 140.9969940185547 439 L 138 439 M 442.00299072265625 310.99798583984375 L 442.00299072265625 310.99700927734375 L 438.99798583984375 310.99700927734375 L 438.99798583984375 311.00299072265625 L 438.99798583984375 314.00201416015625 L 441.99798583984375 314.00201416015625 L 441.99798583984375 314.00299072265625 L 445.00299072265625 314.00299072265625 L 445.00299072265625 314.00201416015625 L 445.00299072265625 311.00299072265625 L 445.00299072265625 310.99798583984375 L 442.00299072265625 310.99798583984375 M 389.00299072265625 400.99700927734375 L 385.99798583984375 400.99700927734375 L 385.99798583984375 403.99798583984375 L 385.99798583984375 404.00299072265625 L 389.00299072265625 404.00299072265625 L 389.00299072265625 404.00201416015625 L 392.00299072265625 404.00201416015625 L 392.00299072265625 403.99798583984375 L 392.00299072265625 400.99700927734375 L 389.00299072265625 400.99700927734375 M 439.00299072265625 343.50299072265625 L 439.00299072265625 335 L 439.00299072265625 334.00299072265625 L 439.00299072265625 325.24798583984375 L 435.99798583984375 325.24798583984375 L 435.99798583984375 334.00299072265625 L 435.99798583984375 335 L 435.99798583984375 343.50299072265625 L 439.00299072265625 343.50299072265625 M 353 327 L 353 335 L 353 408 L 353 419 L 369.99798583984375 419 L 390.00299072265625 419 L 406 419 L 406 408 L 406 380 L 406 335 L 406 327 L 390.00299072265625 327 L 369.99798583984375 327 L 353 327 M 386.00299072265625 377.00299072265625 L 386.00299072265625 371.49798583984375 L 382.99798583984375 371.49798583984375 L 382.99798583984375 377.00299072265625 L 382.99798583984375 381.99798583984375 L 382.99798583984375 389.75299072265625 L 386.00299072265625 389.75299072265625 L 386.00299072265625 381.99798583984375 L 386.00299072265625 377.00299072265625 M 334.99798583984375 349.99798583984375 L 334.99798583984375 360.00299072265625 L 340.00299072265625 360.00299072265625 L 340.00299072265625 349.99798583984375 L 334.99798583984375 349.99798583984375 M 393.00299072265625 365.99798583984375 L 386.99798583984375 365.99798583984375 L 386.99798583984375 371.49798583984375 L 386.99798583984375 377.00299072265625 L 393.00299072265625 377.00299072265625 L 393.00299072265625 365.99798583984375 z" fill="none" stroke="rgb(255,0,0)" stroke-width="0.001mm" />
</svg>