<?xml version="1.0" standalone="no"?>
<!DOCTYPE svg PUBLIC "-//W3C//DTD SVG 1.1//EN"
  "http://www.w3.org/Graphics/SVG/1.1/DTD/svg11.dtd">
<svg width="350mm" height="139mm" viewBox="106 -56 350 139" xmlns="http://www.w3.org/2000/svg" version="1.1">
	<title>svgOutput</title>
	<desc>made with tinkercad</desc>
<path d="M 384 33 L 384 30.003000259399414 L 387.00299072265625 30.003000259399414 L 387.00299072265625 15.998000144958496 L 384 15.998000144958496 L 384 13 L 398.1969909667969 13 L 398.1969909667969 15.998000144958496 L 398.1969909667969 16.003000259399414 L 412.40301513671875 16.003000259399414 L 412.40301513671875 13 L 426.59698486328125 13 L 426.59698486328125 16.003000259399414 L 440.8030090332031 16.003000259399414 L 440.8030090332031 15.998000144958496 L 440.8030090332031 13 L 455 13 L 455 15.998000144958496 L 451.99798583984375 15.998000144958496 L 451.99798583984375 30.003000259399414 L 455 30.003000259399414 L 455 33 L 441.00299072265625 33 L 441.00299072265625 30.003000259399414 L 441.00299072265625 29.99799919128418 L 440.8030090332031 29.99799919128418 L 426.59698486328125 29.99799919128418 L 426.59698486328125 33 L 412.40301513671875 33 L 412.40301513671875 29.99799919128418 L 398.1969909667969 29.99799919128418 L 398.1969909667969 30.003000259399414 L 398.1969909667969 33 L 384 33 M 343.99798583984375 19 L 343.99798583984375 34.75299835205078 L 347 34.75299835205078 L 347 50.49800109863281 L 343.99798583984375 50.49800109863281 L 343.99798583984375 66.25299835205078 L 347 66.25299835205078 L 347 82 L 338.25299072265625 82 L 338.25299072265625 78.99800109863281 L 329.49798583984375 78.99800109863281 L 320.75299072265625 78.99800109863281 L 320.74798583984375 78.99800109863281 L 320.74798583984375 82 L 312 82 L 312 81 L 312 66.25299835205078 L 315.00299072265625 66.25299835205078 L 315.00299072265625 50.49800109863281 L 312 50.49800109863281 L 312 34.75299835205078 L 315.00299072265625 34.75299835205078 L 315.00299072265625 22.003000259399414 L 320.74798583984375 22.003000259399414 L 320.75299072265625 22.003000259399414 L 320.75299072265625 19 L 329.49798583984375 19 L 329.49798583984375 22.003000259399414 L 338.25299072265625 22.003000259399414 L 338.25299072265625 19 L 343.99798583984375 19 M 354.6029968261719 18 L 354.6029968261719 14.996999740600586 L 340.39801025390625 14.996999740600586 L 340.39801025390625 18 L 331.00299072265625 18 L 331.00201416015625 18 L 327.99798583984375 18 L 327.99700927734375 18 L 326.2019958496094 18 L 326.2019958496094 14.996999740600586 L 312 14.996999740600586 L 312 -6.330999851226807 L 315.00299072265625 -6.330999851226807 L 315.00299072265625 -30.66900062561035 L 312 -30.66900062561035 L 312 -51.99800109863281 L 326.2019958496094 -51.99800109863281 L 326.2019958496094 -55 L 327.99700927734375 -55 L 327.99700927734375 -54.999000549316406 L 327.99700927734375 -51.999000549316406 L 327.99798583984375 -51.999000549316406 L 331.00201416015625 -51.999000549316406 L 331.00201416015625 -54.999000549316406 L 331.00299072265625 -54.999000549316406 L 331.00299072265625 -55 L 340.39801025390625 -55 L 340.39801025390625 -51.99800109863281 L 354.6029968261719 -51.99800109863281 L 354.6029968261719 -55 L 365.99700927734375 -55 L 365.99700927734375 -54.999000549316406 L 365.99700927734375 -51.999000549316406 L 365.99798583984375 -51.999000549316406 L 368.7980041503906 -51.999000549316406 L 368.7980041503906 -51.99800109863281 L 383 -51.99800109863281 L 383 -30.66900062561035 L 379.99798583984375 -30.66900062561035 L 379.99798583984375 -29.62213134765625 L 379.99798583984375 -27 L 379.99798583984375 -6.330999851226807 L 383 -6.330999851226807 L 383 14.996999740600586 L 368.7980041503906 14.996999740600586 L 368.7980041503906 18 L 365.99798583984375 18 L 365.99700927734375 18 L 354.6029968261719 18 M 379.99798583984375 19 L 379.99798583984375 34.75299835205078 L 383 34.75299835205078 L 383 50.49800109863281 L 379.99798583984375 50.49800109863281 L 379.99798583984375 66.25299835205078 L 383 66.25299835205078 L 383 82 L 374.25299072265625 82 L 374.25299072265625 78.99800109863281 L 365.50299072265625 78.99800109863281 L 365.49798583984375 78.99800109863281 L 356.75299072265625 78.99800109863281 L 356.74798583984375 78.99800109863281 L 356.74798583984375 82 L 348 82 L 348 66.25299835205078 L 351.00299072265625 66.25299835205078 L 351.00299072265625 50.49800109863281 L 348 50.49800109863281 L 348 34.75299835205078 L 351.00299072265625 34.75299835205078 L 351.00299072265625 22.003000259399414 L 356.74798583984375 22.003000259399414 L 356.75299072265625 22.003000259399414 L 356.75299072265625 19 L 365.49798583984375 19 L 365.49798583984375 22.003000259399414 L 365.50299072265625 22.003000259399414 L 374.25299072265625 22.003000259399414 L 374.25299072265625 19 L 379.99798583984375 19 M 443.99798583984375 -3.996999979019165 L 443.99798583984375 -0.9999999999999999 L 428.2510070800781 -0.9999999999999999 L 428.2510070800781 -3.996999979019165 L 428.2510070800781 -4.001999855041504 L 412.4949951171875 -4.001999855041504 L 412.4949951171875 -3.996999979019165 L 412.4949951171875 -0.9999999999999999 L 396.7510070800781 -0.9999999999999999 L 396.7510070800781 -3.996999979019165 L 396.7510070800781 -4.001999855041504 L 384.0010070800781 -4.001999855041504 L 384.0010070800781 -9.996999740600586 L 396.7510070800781 -9.996999740600586 L 396.7510070800781 -10.001999855041504 L 396.7510070800781 -13 L 412.4949951171875 -13 L 412.4949951171875 -10.001999855041504 L 412.4949951171875 -9.996999740600586 L 428.2510070800781 -9.996999740600586 L 428.2510070800781 -10.001999855041504 L 428.2510070800781 -13 L 443.99798583984375 -13 L 443.99798583984375 -10.001999855041504 L 440.9949951171875 -10.001999855041504 L 440.9949951171875 -3.996999979019165 L 443.99798583984375 -3.996999979019165 M 208.3979949951172 -55 L 208.3979949951172 -51.99800109863281 L 222.60299682617188 -51.99800109863281 L 222.60299682617188 -55 L 232.0030059814453 -55 L 233.9980010986328 -55 L 233.9980010986328 -39.25199890136719 L 236.79800415039062 -39.25199890136719 L 237.0030059814453 -39.25199890136719 L 237.0030059814453 -51.99800109863281 L 251 -51.99800109863281 L 251 -27.802000045776367 L 247.9980010986328 -27.802000045776367 L 247.9980010986328 -0.5970000028610228 L 251 -0.5970000028610228 L 251 7.998000144958496 L 236.79800415039062 7.998000144958496 L 236.79800415039062 11.003000259399414 L 251 11.003000259399414 L 251 26.597999572753906 L 247.9980010986328 26.597999572753906 L 247.9980010986328 53.803001403808594 L 251 53.803001403808594 L 251 77.99800109863281 L 236.79800415039062 77.99800109863281 L 236.79800415039062 81 L 233.9980010986328 81 L 232.0030059814453 81 L 222.60299682617188 81 L 222.60299682617188 77.99800109863281 L 208.3979949951172 77.99800109863281 L 208.3979949951172 81 L 201.9980010986328 81 L 199.0030059814453 81 L 195.9980010986328 81 L 194.20199584960938 81 L 194.20199584960938 77.99800109863281 L 180 77.99800109863281 L 180 53.803001403808594 L 183.0030059814453 53.803001403808594 L 183.0030059814453 26.597999572753906 L 180 26.597999572753906 L 180 11.003000259399414 L 194.20199584960938 11.003000259399414 L 194.20199584960938 7.998000144958496 L 180 7.998000144958496 L 180 -0.5970000028610228 L 183.0030059814453 -0.5970000028610228 L 183.0030059814453 -27.802000045776367 L 180 -27.802000045776367 L 180 -51.99800109863281 L 194.20199584960938 -51.99800109863281 L 194.20199584960938 -55 L 195.9980010986328 -55 L 195.9980010986328 -39.25199890136719 L 199.0030059814453 -39.25199890136719 L 199.0030059814453 -55 L 201.9980010986328 -55 L 208.3979949951172 -55 M 440.8030090332031 50 L 455 50 L 455 52.99800109863281 L 451.99798583984375 52.99800109863281 L 451.99798583984375 62.00299835205078 L 455 62.00299835205078 L 455 64.99800109863281 L 451.99798583984375 64.99800109863281 L 451.99798583984375 79.00299835205078 L 455 79.00299835205078 L 455 82 L 440.8030090332031 82 L 440.8030090332031 79.00299835205078 L 440.8030090332031 78.99800109863281 L 426.59698486328125 78.99800109863281 L 426.59698486328125 82 L 412.40301513671875 82 L 412.40301513671875 78.99800109863281 L 398.1969909667969 78.99800109863281 L 398.1969909667969 79.00299835205078 L 398.1969909667969 82 L 384 82 L 384 79.00299835205078 L 387.00299072265625 79.00299835205078 L 387.00299072265625 64.99800109863281 L 384 64.99800109863281 L 384 62.00299835205078 L 387.00299072265625 62.00299835205078 L 387.00299072265625 52.99800109863281 L 384 52.99800109863281 L 384 50 L 398.1969909667969 50 L 398.1969909667969 52.99800109863281 L 398.1969909667969 53.00299835205078 L 412.40301513671875 53.00299835205078 L 412.40301513671875 50 L 426.59698486328125 50 L 426.59698486328125 53.00299835205078 L 440.8030090332031 53.00299835205078 L 440.8030090332031 52.99800109863281 L 440.8030090332031 50 M 178 26.597999572753906 L 174.9980010986328 26.597999572753906 L 174.9980010986328 53.803001403808594 L 178 53.803001403808594 L 178 77.99800109863281 L 163.79800415039062 77.99800109863281 L 163.79800415039062 81 L 149.60299682617188 81 L 149.60299682617188 77.99800109863281 L 135.3979949951172 77.99800109863281 L 135.3979949951172 81 L 121.2020034790039 81 L 121.2020034790039 77.99800109863281 L 107 77.99800109863281 L 107 53.803001403808594 L 110.00299835205078 53.803001403808594 L 110.00299835205078 26.597999572753906 L 107 26.597999572753906 L 107 -0.5970000028610228 L 110.00299835205078 -0.5970000028610228 L 110.00299835205078 -27.802000045776367 L 107 -27.802000045776367 L 107 -51.99800109863281 L 121.2020034790039 -51.99800109863281 L 121.2020034790039 -55 L 135.3979949951172 -55 L 135.3979949951172 -51.99800109863281 L 149.60299682617188 -51.99800109863281 L 149.60299682617188 -55 L 163.79800415039062 -55 L 163.79800415039062 -51.99800109863281 L 178 -51.99800109863281 L 178 -27.802000045776367 L 174.9980010986328 -27.802000045776367 L 174.9980010986328 -0.5970000028610228 L 178 -0.5970000028610228 L 178 26.597999572753906 M 451 -47 L 451 -44 L 451.02099609375 -44 L 388 -31.979000091552734 L 388 -32 L 385 -32 L 385 -38 L 388 -38 L 388 -44 L 403.75 -44 L 403.75 -47 L 419.5 -47 L 419.5 -44 L 435.25 -44 L 435.25 -47 L 451 -47 M 437.50299072265625 12 L 437.50299072265625 8.998000144958496 L 428.74798583984375 8.998000144958496 L 428.74798583984375 12 L 423.00299072265625 12 L 423.00299072265625 8.998000144958496 L 420 8.998000144958496 L 420 3.003000020980835 L 423.00299072265625 3.003000020980835 L 423.00299072265625 1.1102230246251565e-16 L 428.74798583984375 1.1102230246251565e-16 L 428.74798583984375 3.003000020980835 L 437.50299072265625 3.003000020980835 L 437.50299072265625 1.1102230246251565e-16 L 446.24798583984375 1.1102230246251565e-16 L 446.24798583984375 3.003000020980835 L 455 3.003000020980835 L 455 8.998000144958496 L 446.24798583984375 8.998000144958496 L 446.24798583984375 12 L 437.50299072265625 12 M 455 36.99800109863281 L 451.99798583984375 36.99800109863281 L 451.99798583984375 46.00299835205078 L 455 46.00299835205078 L 455 49 L 441.00299072265625 49 L 441.00201416015625 49 L 441.00201416015625 46.00299835205078 L 441.00201416015625 43.000999450683594 L 440.8030090332031 43.000999450683594 L 437.99798583984375 43.000999450683594 L 437.99700927734375 43.000999450683594 L 437.99700927734375 45.99800109863281 L 426.59698486328125 45.99800109863281 L 426.59698486328125 49 L 424.00299072265625 49 L 413.99798583984375 49 L 412.40301513671875 49 L 412.40301513671875 45.99800109863281 L 403.00299072265625 45.99800109863281 L 403.00201416015625 45.99800109863281 L 403.00201416015625 43.000999450683594 L 399.99798583984375 43.000999450683594 L 399.99700927734375 43.000999450683594 L 399.99700927734375 45.99800109863281 L 398.1969909667969 45.99800109863281 L 398.1969909667969 46.00299835205078 L 398.1969909667969 49 L 384 49 L 384 46.00299835205078 L 387.00299072265625 46.00299835205078 L 387.00299072265625 36.99800109863281 L 384 36.99800109863281 L 384 34 L 398.1969909667969 34 L 398.1969909667969 36.99800109863281 L 398.1969909667969 37.00299835205078 L 399.99700927734375 37.00299835205078 L 399.99798583984375 37.00299835205078 L 403.00201416015625 37.00299835205078 L 403.00299072265625 37.00299835205078 L 412.40301513671875 37.00299835205078 L 412.40301513671875 34 L 413.99798583984375 34 L 424.00299072265625 34 L 426.59698486328125 34 L 426.59698486328125 37.00299835205078 L 437.99700927734375 37.00299835205078 L 437.99798583984375 37.00299835205078 L 440.8030090332031 37.00299835205078 L 440.8030090332031 36.999000549316406 L 440.8030090332031 36.99800109863281 L 440.8030090332031 34 L 455 34 L 455 36.99800109863281 M 428.2510070800781 -26 L 443.99798583984375 -26 L 443.99798583984375 -23.00200080871582 L 440.9949951171875 -23.00200080871582 L 440.9949951171875 -16.996999740600586 L 443.99798583984375 -16.996999740600586 L 443.99798583984375 -14 L 428.2510070800781 -14 L 428.2510070800781 -16.996999740600586 L 428.2510070800781 -17.00200080871582 L 412.4949951171875 -17.00200080871582 L 412.4949951171875 -14 L 396.7510070800781 -14 L 396.7510070800781 -17.00200080871582 L 384.0010070800781 -17.00200080871582 L 384.0010070800781 -22.996999740600586 L 396.7510070800781 -22.996999740600586 L 396.7510070800781 -26 L 412.4949951171875 -26 L 412.4949951171875 -22.996999740600586 L 428.2510070800781 -22.996999740600586 L 428.2510070800781 -23.00200080871582 L 428.2510070800781 -26 M 272.00299072265625 -54.999000549316406 L 279 -54.999000549316406 L 280.99798583984375 -54.999000549316406 L 280.99798583984375 -30.663000106811523 L 284 -30.663000106811523 L 284 -27.797000885009766 L 284 -6.335000038146973 L 280.99798583984375 -6.335000038146973 L 280.99798583984375 7.999000072479248 L 280.99798583984375 18.000999450683594 L 279 18.000999450683594 L 272.00299072265625 18.000999450683594 L 272.00299072265625 -0.6010000109672545 L 272 -0.6010000109672545 L 268.99798583984375 -0.6010000109672545 L 268.99798583984375 26.604000091552734 L 272 26.604000091552734 L 272 53.79899978637695 L 268.99798583984375 53.79899978637695 L 268.99798583984375 81 L 255.0030059814453 81 L 255.0030059814453 53.79899978637695 L 252 53.79899978637695 L 252 26.604000091552734 L 255.0030059814453 26.604000091552734 L 255.0030059814453 -0.6010000109672545 L 252 -0.6010000109672545 L 252 -27.797000885009766 L 255.0030059814453 -27.797000885009766 L 255.0030059814453 -55 L 268.99798583984375 -55 L 268.99798583984375 -27.797000885009766 L 272 -27.797000885009766 L 272.00299072265625 -27.797000885009766 L 272.00299072265625 -54.999000549316406 M 448 -36 L 445 -36 L 445 -30 L 429.25 -30 L 429.25 -27 L 413.5 -27 L 413.5 -30 L 397.75 -30 L 397.75 -27 L 384 -27 L 383 -27 L 382 -27 L 382 -30 L 381.97900390625 -30 L 383 -30.194751739501953 L 384 -30.385498046875 L 445 -42.020999908447266 L 445 -42 L 448 -42 L 448 -36 M 290.99798583984375 7.999000072479248 L 290.99798583984375 26.60099983215332 L 294 26.60099983215332 L 294.00299072265625 26.60099983215332 L 294.00299072265625 -0.6039999723434447 L 294 -0.6039999723434447 L 291 -0.6039999723434447 L 291 -27.798999786376953 L 294 -27.798999786376953 L 294.00299072265625 -27.798999786376953 L 294.00299072265625 -55 L 307.99798583984375 -55 L 307.99798583984375 -27.798999786376953 L 311 -27.798999786376953 L 311 -0.6039999723434447 L 307.99798583984375 -0.6039999723434447 L 307.99798583984375 26.60099983215332 L 311 26.60099983215332 L 311 53.797000885009766 L 307.99798583984375 53.797000885009766 L 307.99798583984375 81 L 294.00299072265625 81 L 294.00299072265625 53.797000885009766 L 294 53.797000885009766 L 290.99798583984375 53.797000885009766 L 290.99798583984375 56.66299819946289 L 290.99798583984375 80.9990005493164 L 282.00299072265625 80.9990005493164 L 282.00299072265625 56.66299819946289 L 279 56.66299819946289 L 279 53.797000885009766 L 279 32.334999084472656 L 282.00299072265625 32.334999084472656 L 282.00299072265625 26.60099983215332 L 282.00299072265625 18.000999450683594 L 282.00299072265625 7.999000072479248 L 284 7.999000072479248 L 290.99798583984375 7.999000072479248 M 410.24798583984375 1.1102230246251565e-16 L 410.24798583984375 3.003000020980835 L 419 3.003000020980835 L 419 8.998000144958496 L 410.24798583984375 8.998000144958496 L 410.24798583984375 9.003000259399414 L 410.24798583984375 12 L 394.99798583984375 12 L 392.75299072265625 12 L 392.75299072265625 8.998000144958496 L 384 8.998000144958496 L 384 3.003000020980835 L 392.75299072265625 3.003000020980835 L 392.75299072265625 1.1102230246251565e-16 L 394.99798583984375 1.1102230246251565e-16 L 405.00299072265625 1.1102230246251565e-16 L 410.24798583984375 1.1102230246251565e-16 M 395.28900146484375 3 L 395.2359924316406 3.007999897003174 L 395.1860046386719 3.0199999809265137 L 395.1400146484375 3.0369999408721924 L 395.0989990234375 3.058000087738037 L 395.06298828125 3.0829999446868896 L 395.0350036621094 3.1110000610351562 L 395.0140075683594 3.1410000324249268 L 395.00201416015625 3.171999931335449 L 394.99798583984375 3.2049999237060547 L 394.99798583984375 8.192000389099121 L 394.99798583984375 8.795000076293945 L 395.00201416015625 8.82800006866455 L 395.0140075683594 8.859000205993652 L 395.0350036621094 8.888999938964844 L 395.06298828125 8.916999816894531 L 395.0989990234375 8.942000389099121 L 395.1400146484375 8.963000297546387 L 395.1860046386719 8.979999542236328 L 395.2359924316406 8.991999626159668 L 395.28900146484375 9 L 395.3429870605469 9.003000259399414 L 397.31201171875 9.003000259399414 L 401.4079895019531 9.003000259399414 L 404.6579895019531 9.003000259399414 L 404.71099853515625 9 L 404.7640075683594 8.991999626159668 L 404.8139953613281 8.979999542236328 L 404.8599853515625 8.963000297546387 L 404.9010009765625 8.942000389099121 L 404.93701171875 8.916999816894531 L 404.9649963378906 8.888999938964844 L 404.9859924316406 8.859000205993652 L 404.99798583984375 8.82800006866455 L 405.00299072265625 8.795000076293945 L 405.00299072265625 8.192000389099121 L 405.00299072265625 3.2049999237060547 L 404.99798583984375 3.171999931335449 L 404.9859924316406 3.1410000324249268 L 404.9649963378906 3.1110000610351562 L 404.93701171875 3.0829999446868896 L 404.9010009765625 3.058000087738037 L 404.8599853515625 3.0369999408721924 L 404.8139953613281 3.0199999809265137 L 404.7640075683594 3.007999897003174 L 404.71099853515625 3 L 404.6579895019531 2.997999906539917 L 401.4079895019531 2.997999906539917 L 397.31201171875 2.997999906539917 L 395.3429870605469 2.997999906539917 L 395.28900146484375 3 M 424.00299072265625 46.00199890136719 L 424.00299072265625 39.99700164794922 L 413.99798583984375 39.99700164794922 L 413.99798583984375 46.00199890136719 L 424.00299072265625 46.00199890136719 M 208.3979949951172 11.003000259399414 L 222.60299682617188 11.003000259399414 L 222.60299682617188 7.998000144958496 L 208.3979949951172 7.998000144958496 L 208.3979949951172 11.003000259399414 M 222.60299682617188 42.99700164794922 L 208.3979949951172 42.99700164794922 L 201.9980010986328 42.99700164794922 L 201.9980010986328 73.00199890136719 L 208.3979949951172 73.00199890136719 L 222.60299682617188 73.00199890136719 L 232.0030059814453 73.00199890136719 L 232.0030059814453 42.99700164794922 L 222.60299682617188 42.99700164794922 M 233.9980010986328 -7.75 L 236.79800415039062 -7.75 L 237.0030059814453 -7.75 L 237.0030059814453 -23.500999450683594 L 236.79800415039062 -23.500999450683594 L 233.9980010986328 -23.500999450683594 L 233.9980010986328 -7.75 M 195.9980010986328 -7.75 L 199.0030059814453 -7.75 L 199.0030059814453 -23.500999450683594 L 195.9980010986328 -23.500999450683594 L 195.9980010986328 -7.75 M 398.1969909667969 65.00299835205078 L 412.40301513671875 65.00299835205078 L 412.40301513671875 61.99800109863281 L 398.1969909667969 61.99800109863281 L 398.1969909667969 62.00299835205078 L 398.1969909667969 64.99800109863281 L 398.1969909667969 65.00299835205078 M 440.8030090332031 61.99800109863281 L 426.59698486328125 61.99800109863281 L 426.59698486328125 65.00299835205078 L 440.8030090332031 65.00299835205078 L 440.8030090332031 64.99800109863281 L 440.8030090332031 62.00299835205078 L 440.8030090332031 61.99800109863281 z" fill="none" stroke="rgb(255,0,0)" stroke-width="0.001mm" />
</svg>