<?xml version="1.0" standalone="no"?>
<!DOCTYPE svg PUBLIC "-//W3C//DTD SVG 1.1//EN"
  "http://www.w3.org/Graphics/SVG/1.1/DTD/svg11.dtd">
<svg width="343mm" height="150mm" viewBox="113 -67 343 150" xmlns="http://www.w3.org/2000/svg" version="1.1">
	<title>svgOutput</title>
	<desc>made with tinkercad</desc>
<path d="M 419 8.998000144958496 L 410.24798583984375 8.998000144958496 L 410.24798583984375 9.003000259399414 L 410.24798583984375 12 L 394.99798583984375 12 L 392.75299072265625 12 L 392.75299072265625 8.998000144958496 L 384 8.998000144958496 L 384 3.003000020980835 L 392.75299072265625 3.003000020980835 L 392.75299072265625 1.1102230246251565e-16 L 394.99798583984375 1.1102230246251565e-16 L 405.00299072265625 1.1102230246251565e-16 L 410.24798583984375 1.1102230246251565e-16 L 410.24798583984375 3.003000020980835 L 419 3.003000020980835 L 419 8.998000144958496 M 382 -27 L 382 -30 L 381.97900390625 -30 L 383 -30.194751739501953 L 384 -30.385498046875 L 445 -42.020999908447266 L 445 -42 L 448 -42 L 448 -36 L 445 -36 L 445 -30 L 429.25 -30 L 429.25 -27 L 413.5 -27 L 413.5 -30 L 397.75 -30 L 397.75 -27 L 384 -27 L 383 -27 L 382 -27 M 383 -31.66900062561035 L 379.99798583984375 -31.66900062561035 L 379.99798583984375 -29.62213134765625 L 379.99798583984375 -27 L 379.99798583984375 -7.330999851226807 L 383 -7.330999851226807 L 383 13.996999740600586 L 368.7980041503906 13.996999740600586 L 368.7980041503906 17 L 354.6029968261719 17 L 354.6029968261719 13.996999740600586 L 348 13.996999740600586 L 347 13.996999740600586 L 340.39801025390625 13.996999740600586 L 340.39801025390625 17 L 331.00299072265625 17 L 331.00201416015625 17 L 327.99798583984375 17 L 327.99700927734375 17 L 326.2019958496094 17 L 326.2019958496094 13.996999740600586 L 312 13.996999740600586 L 312 -7.330999851226807 L 315.00299072265625 -7.330999851226807 L 315.00299072265625 -31.66900062561035 L 312 -31.66900062561035 L 312 -52.99800109863281 L 326.2019958496094 -52.99800109863281 L 326.2019958496094 -55 L 326.2019958496094 -56 L 327.99700927734375 -56 L 327.99700927734375 -55 L 327.99700927734375 -52.999000549316406 L 327.99798583984375 -52.999000549316406 L 331.00201416015625 -52.999000549316406 L 331.00201416015625 -55 L 331.00201416015625 -55.999000549316406 L 331.00299072265625 -55.999000549316406 L 331.00299072265625 -56 L 340.39801025390625 -56 L 340.39801025390625 -55 L 340.39801025390625 -52.99800109863281 L 347 -52.99800109863281 L 348 -52.99800109863281 L 354.6029968261719 -52.99800109863281 L 354.6029968261719 -55 L 354.6029968261719 -56 L 366.99700927734375 -56 L 366.99700927734375 -55 L 366.99700927734375 -52.999000549316406 L 366.99798583984375 -52.999000549316406 L 368.7980041503906 -52.999000549316406 L 368.7980041503906 -52.99800109863281 L 383 -52.99800109863281 L 383 -31.66900062561035 M 384 62.00299835205078 L 387.00299072265625 62.00299835205078 L 387.00299072265625 52.99800109863281 L 384 52.99800109863281 L 384 50 L 398.1969909667969 50 L 398.1969909667969 52.99800109863281 L 398.1969909667969 53.00299835205078 L 412.40301513671875 53.00299835205078 L 412.40301513671875 50 L 426.59698486328125 50 L 426.59698486328125 53.00299835205078 L 440.8030090332031 53.00299835205078 L 440.8030090332031 52.99800109863281 L 440.8030090332031 50 L 455 50 L 455 52.99800109863281 L 451.99798583984375 52.99800109863281 L 451.99798583984375 62.00299835205078 L 455 62.00299835205078 L 455 64.99800109863281 L 451.99798583984375 64.99800109863281 L 451.99798583984375 79.00299835205078 L 455 79.00299835205078 L 455 81 L 455 82 L 440.8030090332031 82 L 440.8030090332031 81 L 440.8030090332031 79.00299835205078 L 440.8030090332031 78.99800109863281 L 426.59698486328125 78.99800109863281 L 426.59698486328125 81 L 426.59698486328125 82 L 412.40301513671875 82 L 412.40301513671875 81 L 412.40301513671875 78.99800109863281 L 398.1969909667969 78.99800109863281 L 398.1969909667969 79.00299835205078 L 398.1969909667969 81 L 398.1969909667969 82 L 384 82 L 384 81 L 384 79.00299835205078 L 387.00299072265625 79.00299835205078 L 387.00299072265625 64.99800109863281 L 384 64.99800109863281 L 384 62.00299835205078 M 312 34.75299835205078 L 315.00299072265625 34.75299835205078 L 315.00299072265625 22.003000259399414 L 320.74798583984375 22.003000259399414 L 320.75299072265625 22.003000259399414 L 320.75299072265625 19 L 329.49798583984375 19 L 329.49798583984375 22.003000259399414 L 338.25299072265625 22.003000259399414 L 338.25299072265625 19 L 343.99798583984375 19 L 343.99798583984375 34.75299835205078 L 347 34.75299835205078 L 347 50.49800109863281 L 343.99798583984375 50.49800109863281 L 343.99798583984375 66.25299835205078 L 347 66.25299835205078 L 347 81 L 347 82 L 338.25299072265625 82 L 338.25299072265625 81 L 338.25299072265625 78.99800109863281 L 329.49798583984375 78.99800109863281 L 320.75299072265625 78.99800109863281 L 320.74798583984375 78.99800109863281 L 320.74798583984375 81 L 320.74798583984375 82 L 312 82 L 312 81 L 312 66.25299835205078 L 315.00299072265625 66.25299835205078 L 315.00299072265625 50.49800109863281 L 312 50.49800109863281 L 312 34.75299835205078 M 385 -38 L 388 -38 L 388 -44 L 403.75 -44 L 403.75 -47 L 419.5 -47 L 419.5 -44 L 435.25 -44 L 435.25 -47 L 451 -47 L 451 -44 L 451.02099609375 -44 L 388 -31.979000091552734 L 388 -32 L 385 -32 L 385 -38 M 384 13 L 398.1969909667969 13 L 398.1969909667969 15.998000144958496 L 398.1969909667969 16.003000259399414 L 412.40301513671875 16.003000259399414 L 412.40301513671875 13 L 426.59698486328125 13 L 426.59698486328125 16.003000259399414 L 440.8030090332031 16.003000259399414 L 440.8030090332031 16.00200080871582 L 442.00299072265625 16.00200080871582 L 442.00299072265625 15.998000144958496 L 442.00299072265625 13 L 455 13 L 455 15.998000144958496 L 451.99798583984375 15.998000144958496 L 451.99798583984375 30.003000259399414 L 455 30.003000259399414 L 455 33 L 440.8030090332031 33 L 440.8030090332031 30.003000259399414 L 440.8030090332031 29.99799919128418 L 426.59698486328125 29.99799919128418 L 426.59698486328125 33 L 412.40301513671875 33 L 412.40301513671875 29.99799919128418 L 398.1969909667969 29.99799919128418 L 398.1969909667969 30.003000259399414 L 398.1969909667969 33 L 384 33 L 384 30.003000259399414 L 387.00299072265625 30.003000259399414 L 387.00299072265625 15.998000144958496 L 384 15.998000144958496 L 384 13 M 443.99798583984375 -13 L 443.99798583984375 -10.001999855041504 L 440.9949951171875 -10.001999855041504 L 440.9949951171875 -3.996999979019165 L 443.99798583984375 -3.996999979019165 L 443.99798583984375 -0.9999999999999999 L 428.2510070800781 -0.9999999999999999 L 428.2510070800781 -3.996999979019165 L 428.2510070800781 -4.001999855041504 L 412.4949951171875 -4.001999855041504 L 412.4949951171875 -3.996999979019165 L 412.4949951171875 -0.9999999999999999 L 396.7510070800781 -0.9999999999999999 L 396.7510070800781 -3.996999979019165 L 396.7510070800781 -4.001999855041504 L 384.0010070800781 -4.001999855041504 L 384.0010070800781 -9.996999740600586 L 396.7510070800781 -9.996999740600586 L 396.7510070800781 -10.001999855041504 L 396.7510070800781 -13 L 412.4949951171875 -13 L 412.4949951171875 -10.001999855041504 L 412.4949951171875 -9.996999740600586 L 428.2510070800781 -9.996999740600586 L 428.2510070800781 -10.001999855041504 L 428.2510070800781 -13 L 443.99798583984375 -13 M 412.4949951171875 -26 L 412.4949951171875 -22.996999740600586 L 428.2510070800781 -22.996999740600586 L 428.2510070800781 -23.00200080871582 L 428.2510070800781 -26 L 443.99798583984375 -26 L 443.99798583984375 -23.00200080871582 L 440.9949951171875 -23.00200080871582 L 440.9949951171875 -16.996999740600586 L 443.99798583984375 -16.996999740600586 L 443.99798583984375 -14 L 428.2510070800781 -14 L 428.2510070800781 -16.996999740600586 L 428.2510070800781 -17.00200080871582 L 412.4949951171875 -17.00200080871582 L 412.4949951171875 -14 L 396.7510070800781 -14 L 396.7510070800781 -17.00200080871582 L 384.0010070800781 -17.00200080871582 L 384.0010070800781 -22.996999740600586 L 396.7510070800781 -22.996999740600586 L 396.7510070800781 -26 L 412.4949951171875 -26 M 186 -52.99800109863281 L 200.20199584960938 -52.99800109863281 L 200.20199584960938 -56 L 201.9969940185547 -56 L 201.9980010986328 -56 L 201.9980010986328 -40.25199890136719 L 205.0019989013672 -40.25199890136719 L 205.0030059814453 -40.25199890136719 L 205.0030059814453 -56 L 207.9980010986328 -56 L 214.3979949951172 -56 L 214.3979949951172 -52.99800109863281 L 228.60299682617188 -52.99800109863281 L 228.60299682617188 -56 L 238.0030059814453 -56 L 240.9969940185547 -56 L 240.9980010986328 -56 L 240.9980010986328 -40.25199890136719 L 242.79800415039062 -40.25199890136719 L 244.0019989013672 -40.25199890136719 L 244.0030059814453 -40.25199890136719 L 244.0030059814453 -52.99800109863281 L 257 -52.99800109863281 L 257 -28.802000045776367 L 253.9980010986328 -28.802000045776367 L 253.9980010986328 -1.597000002861023 L 257 -1.597000002861023 L 257 6.998000144958496 L 242.79800415039062 6.998000144958496 L 242.79800415039062 7.000999927520752 L 242.79800415039062 10.00100040435791 L 242.79800415039062 10.003000259399414 L 257 10.003000259399414 L 257 25.597999572753906 L 253.9980010986328 25.597999572753906 L 253.9980010986328 52.803001403808594 L 257 52.803001403808594 L 257 70 L 257 76.99800109863281 L 242.79800415039062 76.99800109863281 L 242.79800415039062 80 L 240.9969940185547 80 L 238.0030059814453 80 L 228.60299682617188 80 L 228.60299682617188 76.99800109863281 L 214.3979949951172 76.99800109863281 L 214.3979949951172 80 L 207.9980010986328 80 L 205.0030059814453 80 L 205.0019989013672 80 L 201.9969940185547 80 L 200.20199584960938 80 L 200.20199584960938 76.99800109863281 L 186 76.99800109863281 L 186 52.803001403808594 L 189.0030059814453 52.803001403808594 L 189.0030059814453 25.597999572753906 L 186 25.597999572753906 L 186 10.003000259399414 L 200.20199584960938 10.003000259399414 L 200.20199584960938 6.998000144958496 L 186 6.998000144958496 L 186 -1.597000002861023 L 189.0030059814453 -1.597000002861023 L 189.0030059814453 -28.802000045776367 L 186 -28.802000045776367 L 186 -52.99800109863281 M 365.49798583984375 19 L 365.49798583984375 22.003000259399414 L 365.50299072265625 22.003000259399414 L 374.25299072265625 22.003000259399414 L 374.25299072265625 19 L 379.99798583984375 19 L 379.99798583984375 34.75299835205078 L 383 34.75299835205078 L 383 50.49800109863281 L 379.99798583984375 50.49800109863281 L 379.99798583984375 66.25299835205078 L 383 66.25299835205078 L 383 81 L 383 82 L 374.25299072265625 82 L 374.25299072265625 81 L 374.25299072265625 78.99800109863281 L 365.50299072265625 78.99800109863281 L 365.49798583984375 78.99800109863281 L 356.75299072265625 78.99800109863281 L 356.74798583984375 78.99800109863281 L 356.74798583984375 81 L 356.74798583984375 82 L 348 82 L 348 81 L 348 66.25299835205078 L 351.00299072265625 66.25299835205078 L 351.00299072265625 50.49800109863281 L 348 50.49800109863281 L 348 34.75299835205078 L 351.00299072265625 34.75299835205078 L 351.00299072265625 22.003000259399414 L 356.74798583984375 22.003000259399414 L 356.75299072265625 22.003000259399414 L 356.75299072265625 19 L 365.49798583984375 19 M 426.59698486328125 49 L 424.00299072265625 49 L 413.99798583984375 49 L 412.40301513671875 49 L 412.40301513671875 45.99800109863281 L 403.00299072265625 45.99800109863281 L 403.00201416015625 45.99800109863281 L 403.00201416015625 43.000999450683594 L 399.99798583984375 43.000999450683594 L 399.99700927734375 43.000999450683594 L 399.99700927734375 45.99800109863281 L 398.1969909667969 45.99800109863281 L 398.1969909667969 46.00299835205078 L 398.1969909667969 49 L 384 49 L 384 46.00299835205078 L 387.00299072265625 46.00299835205078 L 387.00299072265625 36.99800109863281 L 384 36.99800109863281 L 384 34 L 398.1969909667969 34 L 398.1969909667969 36.99800109863281 L 398.1969909667969 37.00299835205078 L 399.99700927734375 37.00299835205078 L 399.99798583984375 37.00299835205078 L 403.00201416015625 37.00299835205078 L 403.00299072265625 37.00299835205078 L 412.40301513671875 37.00299835205078 L 412.40301513671875 34 L 413.99798583984375 34 L 424.00299072265625 34 L 426.00299072265625 34 L 426.59698486328125 34 L 426.59698486328125 37.00299835205078 L 438.99700927734375 37.00299835205078 L 438.99798583984375 37.00299835205078 L 440.8030090332031 37.00299835205078 L 440.8030090332031 36.999000549316406 L 440.8030090332031 36.99800109863281 L 440.8030090332031 34 L 455 34 L 455 36.99800109863281 L 451.99798583984375 36.99800109863281 L 451.99798583984375 46.00299835205078 L 455 46.00299835205078 L 455 49 L 442.00299072265625 49 L 442.00201416015625 49 L 442.00201416015625 46.00299835205078 L 442.00201416015625 43.000999450683594 L 440.8030090332031 43.000999450683594 L 438.99798583984375 43.000999450683594 L 438.99700927734375 43.000999450683594 L 438.99700927734375 45.99800109863281 L 426.59698486328125 45.99800109863281 L 426.59698486328125 46.00299835205078 L 426.59698486328125 49 M 114 52.803001403808594 L 117.00299835205078 52.803001403808594 L 117.00299835205078 25.597999572753906 L 114 25.597999572753906 L 114 -1.597000002861023 L 117.00299835205078 -1.597000002861023 L 117.00299835205078 -28.802000045776367 L 114 -28.802000045776367 L 114 -52.99800109863281 L 128.20199584960938 -52.99800109863281 L 128.20199584960938 -56 L 142.3979949951172 -56 L 142.3979949951172 -52.99800109863281 L 156.60299682617188 -52.99800109863281 L 156.60299682617188 -56 L 170.79800415039062 -56 L 170.79800415039062 -52.99800109863281 L 185 -52.99800109863281 L 185 -28.802000045776367 L 181.9980010986328 -28.802000045776367 L 181.9980010986328 -1.597000002861023 L 185 -1.597000002861023 L 185 25.597999572753906 L 181.9980010986328 25.597999572753906 L 181.9980010986328 52.803001403808594 L 185 52.803001403808594 L 185 76.99800109863281 L 170.79800415039062 76.99800109863281 L 170.79800415039062 80 L 156.60299682617188 80 L 156.60299682617188 76.99800109863281 L 142.3979949951172 76.99800109863281 L 142.3979949951172 80 L 128.20199584960938 80 L 128.20199584960938 76.99800109863281 L 114 76.99800109863281 L 114 52.803001403808594 M 416.3868713378906 46.00199890136719 L 416.4119873046875 46.00299835205078 L 417.7919921875 46.00299835205078 L 421.88800048828125 46.00299835205078 L 423.5880126953125 46.00299835205078 L 423.6131286621094 46.00199890136719 L 424.00299072265625 46.00199890136719 L 424.00299072265625 45.986488342285156 L 424.00299072265625 45.98336410522461 L 424.3340148925781 45.94300079345703 L 424.6839904785156 45.87099838256836 L 425.0069885253906 45.77199935913086 L 425.2950134277344 45.64899826049805 L 425.5409851074219 45.505001068115234 L 425.739013671875 45.34299850463867 L 425.8840026855469 45.167999267578125 L 425.9729919433594 44.98400115966797 L 425.9840087890625 44.91469955444336 L 426.00299072265625 44.79499816894531 L 426.00299072265625 41.20500183105469 L 425.9840087890625 41.08530044555664 L 425.9729919433594 41.01599884033203 L 425.9459228515625 40.959999084472656 L 425.8840026855469 40.832000732421875 L 425.739013671875 40.65700149536133 L 425.5409851074219 40.494998931884766 L 425.2950134277344 40.35100173950195 L 425.0069885253906 40.22800064086914 L 424.6839904785156 40.12900161743164 L 424.3340148925781 40.05699920654297 L 424.00299072265625 40.01663589477539 L 424.00299072265625 39.99800109863281 L 424.00299072265625 39.99700164794922 L 413.99798583984375 39.99700164794922 L 413.99798583984375 46.00199890136719 L 416.3868713378906 46.00199890136719 M 307.99798583984375 -55 L 307.99798583984375 -27.798999786376953 L 311 -27.798999786376953 L 311 -0.6039999723434447 L 307.99798583984375 -0.6039999723434447 L 307.99798583984375 26.60099983215332 L 311 26.60099983215332 L 311 53.797000885009766 L 307.99798583984375 53.797000885009766 L 307.99798583984375 81 L 294.00299072265625 81 L 294.00299072265625 53.797000885009766 L 294 53.797000885009766 L 290.99798583984375 53.797000885009766 L 290.99798583984375 56.66299819946289 L 290.99798583984375 80.9990005493164 L 282.00299072265625 80.9990005493164 L 282.00299072265625 56.66299819946289 L 279 56.66299819946289 L 279 53.797000885009766 L 279 32.334999084472656 L 282.00299072265625 32.334999084472656 L 282.00299072265625 26.60099983215332 L 282.00299072265625 7.999000072479248 L 290 7.999000072479248 L 290.99798583984375 7.999000072479248 L 290.99798583984375 26.60099983215332 L 294 26.60099983215332 L 294.00299072265625 26.60099983215332 L 294.00299072265625 -0.6039999723434447 L 294 -0.6039999723434447 L 291 -0.6039999723434447 L 291 -27.798999786376953 L 294 -27.798999786376953 L 294.00299072265625 -27.798999786376953 L 294.00299072265625 -55 L 307.99798583984375 -55 M 258 15.604000091552734 L 261.00299072265625 15.604000091552734 L 261.00299072265625 -11.60099983215332 L 258 -11.60099983215332 L 258 -38.797000885009766 L 261.00299072265625 -38.797000885009766 L 261.00299072265625 -66 L 274.99798583984375 -66 L 274.99798583984375 -38.797000885009766 L 278 -38.797000885009766 L 278.00299072265625 -38.797000885009766 L 278.00299072265625 -65.9990005493164 L 279 -65.9990005493164 L 286.99798583984375 -65.9990005493164 L 286.99798583984375 -55 L 286.99798583984375 -41.66299819946289 L 290 -41.66299819946289 L 290 -38.797000885009766 L 290 -17.334999084472656 L 286.99798583984375 -17.334999084472656 L 286.99798583984375 7.000999927520752 L 279 7.000999927520752 L 278.00299072265625 7.000999927520752 L 278.00299072265625 -11.60099983215332 L 278 -11.60099983215332 L 274.99798583984375 -11.60099983215332 L 274.99798583984375 15.604000091552734 L 278 15.604000091552734 L 278 42.79899978637695 L 274.99798583984375 42.79899978637695 L 274.99798583984375 70 L 261.00299072265625 70 L 261.00299072265625 42.79899978637695 L 258 42.79899978637695 L 258 15.604000091552734 M 428.74798583984375 1.1102230246251565e-16 L 428.74798583984375 3.003000020980835 L 437.50299072265625 3.003000020980835 L 437.50299072265625 1.1102230246251565e-16 L 446.24798583984375 1.1102230246251565e-16 L 446.24798583984375 3.003000020980835 L 455 3.003000020980835 L 455 8.998000144958496 L 446.24798583984375 8.998000144958496 L 446.24798583984375 12 L 437.50299072265625 12 L 437.50299072265625 8.998000144958496 L 428.74798583984375 8.998000144958496 L 428.74798583984375 12 L 423.00299072265625 12 L 423.00299072265625 8.998000144958496 L 420 8.998000144958496 L 420 3.003000020980835 L 423.00299072265625 3.003000020980835 L 423.00299072265625 1.1102230246251565e-16 L 428.74798583984375 1.1102230246251565e-16 M 401.4079895019531 2.997999906539917 L 397.31201171875 2.997999906539917 L 395.3429870605469 2.997999906539917 L 395.28900146484375 3 L 395.2359924316406 3.007999897003174 L 395.1860046386719 3.0199999809265137 L 395.1400146484375 3.0369999408721924 L 395.0989990234375 3.058000087738037 L 395.06298828125 3.0829999446868896 L 395.0350036621094 3.1110000610351562 L 395.0140075683594 3.1410000324249268 L 395.00201416015625 3.171999931335449 L 394.99798583984375 3.2049999237060547 L 394.99798583984375 8.192000389099121 L 394.99798583984375 8.795000076293945 L 395.00201416015625 8.82800006866455 L 395.0140075683594 8.859000205993652 L 395.0350036621094 8.888999938964844 L 395.06298828125 8.916999816894531 L 395.0989990234375 8.942000389099121 L 395.1400146484375 8.963000297546387 L 395.1860046386719 8.979999542236328 L 395.2359924316406 8.991999626159668 L 395.28900146484375 9 L 395.3429870605469 9.003000259399414 L 397.31201171875 9.003000259399414 L 401.4079895019531 9.003000259399414 L 404.6579895019531 9.003000259399414 L 404.71099853515625 9 L 404.7640075683594 8.991999626159668 L 404.8139953613281 8.979999542236328 L 404.8599853515625 8.963000297546387 L 404.9010009765625 8.942000389099121 L 404.93701171875 8.916999816894531 L 404.9649963378906 8.888999938964844 L 404.9859924316406 8.859000205993652 L 404.99798583984375 8.82800006866455 L 405.00299072265625 8.795000076293945 L 405.00299072265625 8.192000389099121 L 405.00299072265625 3.2049999237060547 L 404.99798583984375 3.171999931335449 L 404.9859924316406 3.1410000324249268 L 404.9649963378906 3.1110000610351562 L 404.93701171875 3.0829999446868896 L 404.9010009765625 3.058000087738037 L 404.8599853515625 3.0369999408721924 L 404.8139953613281 3.0199999809265137 L 404.7640075683594 3.007999897003174 L 404.71099853515625 3 L 404.6579895019531 2.997999906539917 L 401.4079895019531 2.997999906539917 M 440.8030090332031 61.99800109863281 L 426.59698486328125 61.99800109863281 L 426.59698486328125 65.00299835205078 L 440.8030090332031 65.00299835205078 L 440.8030090332031 64.99800109863281 L 440.8030090332031 62.00299835205078 L 440.8030090332031 61.99800109863281 M 205.0019989013672 -24.500999450683594 L 201.9980010986328 -24.500999450683594 L 201.9980010986328 -8.75 L 205.0019989013672 -8.75 L 205.0030059814453 -8.75 L 205.0030059814453 -24.500999450683594 L 205.0019989013672 -24.500999450683594 M 214.3979949951172 41.99700164794922 L 207.9980010986328 41.99700164794922 L 207.9980010986328 72.00199890136719 L 214.3979949951172 72.00199890136719 L 228.60299682617188 72.00199890136719 L 238.0030059814453 72.00199890136719 L 238.0030059814453 41.99700164794922 L 228.60299682617188 41.99700164794922 L 214.3979949951172 41.99700164794922 M 244.0019989013672 -8.75 L 244.0030059814453 -8.75 L 244.0030059814453 -24.500999450683594 L 244.0019989013672 -24.500999450683594 L 242.79800415039062 -24.500999450683594 L 240.9980010986328 -24.500999450683594 L 240.9980010986328 -8.75 L 242.79800415039062 -8.75 L 244.0019989013672 -8.75 M 270.00299072265625 -5.995999813079834 L 270.00299072265625 -11.60099983215332 L 270.00299072265625 -16.000999450683594 L 264.99798583984375 -16.000999450683594 L 264.99798583984375 -11.60099983215332 L 264.99798583984375 -5.995999813079834 L 270.00299072265625 -5.995999813079834 M 228.60299682617188 6.998000144958496 L 214.3979949951172 6.998000144958496 L 214.3979949951172 10.003000259399414 L 228.60299682617188 10.003000259399414 L 228.60299682617188 6.998000144958496 M 398.1969909667969 65.00299835205078 L 412.40301513671875 65.00299835205078 L 412.40301513671875 61.99800109863281 L 398.1969909667969 61.99800109863281 L 398.1969909667969 62.00299835205078 L 398.1969909667969 64.99800109863281 L 398.1969909667969 65.00299835205078 z" fill="none" stroke="rgb(255,0,0)" stroke-width="0.001mm" />
</svg>