<?xml version="1.0" standalone="no"?>
<!DOCTYPE svg PUBLIC "-//W3C//DTD SVG 1.1//EN"
  "http://www.w3.org/Graphics/SVG/1.1/DTD/svg11.dtd">
<svg width="111mm" height="52mm" viewBox="-469 182 111 52" xmlns="http://www.w3.org/2000/svg" version="1.1">
	<title>svgOutput</title>
	<desc>made with tinkercad</desc>
<path d="M -456.00299072265625 204.9969940185547 L -458.00299072265625 204.9969940185547 L -458.00299072265625 208.0019989013672 L -458.00299072265625 211.0019989013672 L -456.00299072265625 211.0019989013672 L -456.00299072265625 214.0019989013672 L -370.99798583984375 214.0019989013672 L -370.99798583984375 211.0019989013672 L -368.99798583984375 211.0019989013672 L -368.99798583984375 208.0019989013672 L -368.99798583984375 204.9969940185547 L -370.99798583984375 204.9969940185547 L -370.99798583984375 201.9969940185547 L -372.99798583984375 201.9969940185547 L -372.99798583984375 198.9980010986328 L -376.99798583984375 198.9980010986328 L -377.0509948730469 198.9980010986328 L -377.0509948730469 196.0030059814453 L -376.99798583984375 196.0030059814453 L -376.99798583984375 192.9980010986328 L -377.0509948730469 192.9980010986328 L -450.00299072265625 192.9980010986328 L -450.00299072265625 195.9980010986328 L -452.00299072265625 195.9980010986328 L -452.00299072265625 198.9980010986328 L -454.00299072265625 198.9980010986328 L -454.00299072265625 201.9969940185547 L -456.00299072265625 201.9969940185547 L -456.00299072265625 204.9969940185547 M -359 233 L -368.99798583984375 233 L -370.99798583984375 233 L -456.00299072265625 233 L -458.00299072265625 233 L -468 233 L -468 183 L -458.00299072265625 183 L -456.00299072265625 183 L -454.00299072265625 183 L -452.00299072265625 183 L -450.00299072265625 183 L -377.0509948730469 183 L -376.99798583984375 183 L -372.99798583984375 183 L -370.99798583984375 183 L -368.99798583984375 183 L -359 183 L -359 233 z" fill="none" stroke="rgb(255,0,0)" stroke-width="0.001mm" />
</svg>