<?xml version="1.0" standalone="no"?>
<!DOCTYPE svg PUBLIC "-//W3C//DTD SVG 1.1//EN"
  "http://www.w3.org/Graphics/SVG/1.1/DTD/svg11.dtd">
<svg width="117mm" height="58mm" viewBox="-475 233 117 58" xmlns="http://www.w3.org/2000/svg" version="1.1">
	<title>svgOutput</title>
	<desc>made with tinkercad</desc>
<path d="M -359 290 L -373.99798583984375 290 L -375.99798583984375 290 L -380.0509948730469 290 L -455.00299072265625 290 L -457.00299072265625 290 L -459.00299072265625 290 L -474 290 L -474 234 L -459.00299072265625 234 L -457.00299072265625 234 L -455.00299072265625 234 L -453.00299072265625 234 L -380.0509948730469 234 L -379.99798583984375 234 L -375.99798583984375 234 L -373.99798583984375 234 L -359 234 L -359 290 M -453.00299072265625 249.9980010986328 L -455.00299072265625 249.9980010986328 L -455.00299072265625 252.9980010986328 L -457.00299072265625 252.9980010986328 L -457.00299072265625 255.9969940185547 L -459.00299072265625 255.9969940185547 L -459.00299072265625 259.00201416015625 L -457.00299072265625 259.00201416015625 L -455.00299072265625 259.00201416015625 L -380.0509948730469 259.00201416015625 L -375.99798583984375 259.00201416015625 L -373.99798583984375 259.00201416015625 L -373.99798583984375 255.9969940185547 L -375.99798583984375 255.9969940185547 L -375.99798583984375 252.9980010986328 L -379.99798583984375 252.9980010986328 L -380.0509948730469 252.9980010986328 L -380.0509948730469 250.0030059814453 L -379.99798583984375 250.0030059814453 L -379.99798583984375 246.9980010986328 L -380.0509948730469 246.9980010986328 L -453.00299072265625 246.9980010986328 L -453.00299072265625 249.9980010986328 z" fill="none" stroke="rgb(255,0,0)" stroke-width="0.001mm" />
</svg>