<?xml version="1.0" standalone="no"?>
<!DOCTYPE svg PUBLIC "-//W3C//DTD SVG 1.1//EN"
  "http://www.w3.org/Graphics/SVG/1.1/DTD/svg11.dtd">
<svg width="62mm" height="590mm" viewBox="-156 -91 62 590" xmlns="http://www.w3.org/2000/svg" version="1.1">
	<title>svgOutput</title>
	<desc>made with tinkercad</desc>
<path d="M -137.9980010986328 479.9989929199219 L -137.9980010986328 434.99798583984375 L -147.0030059814453 434.99798583984375 L -147.0030059814453 479.9989929199219 L -150.9980010986328 479.9989929199219 L -151 479.9989929199219 L -151 495 L -155 495 L -155 479.9989929199219 L -155 -74.99700164794922 L -150.9980010986328 -74.99700164794922 L -150.9980010986328 -90 L -147.0030059814453 -90 L -147.0030059814453 -34.99800109863281 L -137.9980010986328 -34.99800109863281 L -137.9980010986328 -90 L -135.0030059814453 -90 L -135.0030059814453 -74.99700164794922 L -131 -74.99700164794922 L -131 479.9989929199219 L -131 495 L -135 495 L -135 479.9989929199219 L -135.0030059814453 479.9989929199219 L -137.9980010986328 479.9989929199219 M -116 485 L -121 485 L -122 485 L -122 480.0010070800781 L -121 480.0010070800781 L -121 -80 L -122 -80 L -122 -84.9990005493164 L -121 -84.9990005493164 L -116 -84.9990005493164 L -116 485 M -123 485 L -128 485 L -130 485 L -130 -84.9990005493164 L -128 -84.9990005493164 L -125 -84.9990005493164 L -123 -84.9990005493164 L -123 -80 L -125 -80 L -125 480.0010070800781 L -123 480.0010070800781 L -123 485 M -95 498 L -98 498 L -98 482.9989929199219 L -98.00199890136719 482.9989929199219 L -99.99700164794922 482.9989929199219 L -99.99800109863281 482.9989929199219 L -99.99800109863281 437.99798583984375 L -109.00199890136719 437.99798583984375 L -109.00299835205078 437.99798583984375 L -109.00299835205078 482.9989929199219 L -111.99700164794922 482.9989929199219 L -112 482.9989929199219 L -112 498 L -115 498 L -115 482.9989929199219 L -115 -71.99800109863281 L -111.99700164794922 -71.99800109863281 L -111.99700164794922 -87 L -109.00299835205078 -87 L -109.00199890136719 -87 L -109.00199890136719 -31.99799919128418 L -99.99800109863281 -31.99799919128418 L -99.99700164794922 -31.99799919128418 L -99.99700164794922 -87 L -98.00199890136719 -87 L -98.00199890136719 -71.99800109863281 L -98 -71.99800109863281 L -95 -71.99800109863281 L -95 478 L -95 498 z" fill="none" stroke="rgb(255,0,0)" stroke-width="0.001mm" />
</svg>