<?xml version="1.0" standalone="no"?>
<!DOCTYPE svg PUBLIC "-//W3C//DTD SVG 1.1//EN"
  "http://www.w3.org/Graphics/SVG/1.1/DTD/svg11.dtd">
<svg width="108mm" height="587mm" viewBox="-202 -91 108 587" xmlns="http://www.w3.org/2000/svg" version="1.1">
	<title>svgOutput</title>
	<desc>made with tinkercad</desc>
<path d="M -130 -84.9990005493164 L -128 -84.9990005493164 L -125 -84.9990005493164 L -123 -84.9990005493164 L -123 -80 L -125 -80 L -125 480.0010070800781 L -123 480.0010070800781 L -123 485 L -128 485 L -130 485 L -130 -84.9990005493164 M -151 495 L -155 495 L -155 479.9989929199219 L -155 -74.99700164794922 L -150.9980010986328 -74.99700164794922 L -150.9980010986328 -90 L -147.0030059814453 -90 L -147.0030059814453 -34.99800109863281 L -137.9980010986328 -34.99800109863281 L -137.9980010986328 -90 L -135.0030059814453 -90 L -135.0030059814453 -74.99700164794922 L -131 -74.99700164794922 L -131 479.9989929199219 L -131 495 L -135 495 L -135 479.9989929199219 L -135.0030059814453 479.9989929199219 L -137.9980010986328 479.9989929199219 L -137.9980010986328 434.99798583984375 L -147.0030059814453 434.99798583984375 L -147.0030059814453 479.9989929199219 L -150.9980010986328 479.9989929199219 L -151 479.9989929199219 L -151 495 M -183 17 L -201 17 L -201 -46 L -183 -46 L -183 17 M -182 -90 L -156 -90 L -156 -32.000999450683594 L -182 -32.000999450683594 L -182 -90 M -183 -47 L -201 -47 L -201 -90 L -183 -90 L -183 -47 M -182 -31 L -156 -31 L -156 17 L -182 17 L -182 -31 M -95 482.9989929199219 L -99.99800109863281 482.9989929199219 L -99.99800109863281 437.99798583984375 L -109.00299835205078 437.99798583984375 L -109.00299835205078 482.9989929199219 L -115 482.9989929199219 L -115 -87 L -109.00299835205078 -87 L -109.00299835205078 -31.99799919128418 L -99.99800109863281 -31.99799919128418 L -99.99800109863281 -87 L -95 -87 L -95 482.9989929199219 M -122 480.0010070800781 L -121 480.0010070800781 L -121 -80 L -122 -80 L -122 -84.9990005493164 L -121 -84.9990005493164 L -116 -84.9990005493164 L -116 485 L -121 485 L -122 485 L -122 480.0010070800781 z" fill="none" stroke="rgb(255,0,0)" stroke-width="0.001mm" />
</svg>