<svg width="14" height="14" viewBox="0 0 14 14" fill="none" xmlns="http://www.w3.org/2000/svg">
<path d="M1.4 1H12.6C12.9713 1 13.3274 1.14487 13.5899 1.40273C13.8525 1.66059 14 2.01033 14 2.375V10.625C14 10.9897 13.8525 11.3394 13.5899 11.5973C13.3274 11.8551 12.9713 12 12.6 12H1.4C1.0287 12 0.672601 11.8551 0.41005 11.5973C0.1475 11.3394 0 10.9897 0 10.625V2.375C0 2.01033 0.1475 1.66059 0.41005 1.40273C0.672601 1.14487 1.0287 1 1.4 1ZM1.4 2.375V10.625H12.6V2.375H1.4ZM7 7.875H11.2V9.25H7V7.875ZM6.2895 6.20506L3.815 8.63606L2.8252 7.66325L4.3092 6.20575L2.8252 4.74687L3.815 3.77475L6.2895 6.20506Z" fill="white"/>
</svg>
