<svg width="14" height="14" viewBox="0 0 14 14" fill="none" xmlns="http://www.w3.org/2000/svg">
<path d="M7.00008 3.14C7.08849 3.14 7.17327 3.10488 7.23578 3.04236C7.2983 2.97985 7.33342 2.89507 7.33342 2.80666V1.63666C7.33342 1.54826 7.2983 1.46347 7.23578 1.40096C7.17327 1.33845 7.08849 1.30333 7.00008 1.30333C6.91168 1.30333 6.82689 1.33845 6.76438 1.40096C6.70187 1.46347 6.66675 1.54826 6.66675 1.63666V2.80666C6.66675 2.89507 6.70187 2.97985 6.76438 3.04236C6.82689 3.10488 6.91168 3.14 7.00008 3.14Z" fill="white"/>
<path d="M7.00008 10.86C6.91168 10.86 6.82689 10.8951 6.76438 10.9576C6.70187 11.0201 6.66675 11.1049 6.66675 11.1933V12.3633C6.66675 12.4517 6.70187 12.5365 6.76438 12.599C6.82689 12.6615 6.91168 12.6967 7.00008 12.6967C7.08849 12.6967 7.17327 12.6615 7.23578 12.599C7.2983 12.5365 7.33342 12.4517 7.33342 12.3633V11.1933C7.33342 11.1049 7.2983 11.0201 7.23578 10.9576C7.17327 10.8951 7.08849 10.86 7.00008 10.86Z" fill="white"/>
<path d="M3.79989 4.27001C3.86365 4.32462 3.94568 4.35315 4.02957 4.34991C4.11346 4.34667 4.19304 4.31189 4.25241 4.25253C4.31177 4.19316 4.34655 4.11358 4.34979 4.02969C4.35303 3.9458 4.32449 3.86377 4.26989 3.80001L3.44322 2.97334C3.37945 2.91873 3.29743 2.8902 3.21353 2.89344C3.12964 2.89668 3.05006 2.93145 2.9907 2.99082C2.93133 3.05018 2.89656 3.12976 2.89332 3.21366C2.89007 3.29755 2.91861 3.37957 2.97322 3.44334L3.79989 4.27001Z" fill="white"/>
<path d="M10.2001 9.72999C10.1363 9.67539 10.0543 9.64685 9.97037 9.65009C9.88648 9.65333 9.8069 9.68811 9.74753 9.74747C9.68817 9.80684 9.65339 9.88642 9.65015 9.97031C9.64691 10.0542 9.67545 10.1362 9.73005 10.2L10.5567 11.0267C10.6205 11.0813 10.7025 11.1098 10.7864 11.1066C10.8703 11.1033 10.9499 11.0685 11.0092 11.0092C11.0686 10.9498 11.1034 10.8702 11.1066 10.7863C11.1099 10.7025 11.0813 10.6204 11.0267 10.5567L10.2001 9.72999Z" fill="white"/>
<path d="M3.13989 7.00001C3.13989 6.9116 3.10477 6.82681 3.04226 6.7643C2.97975 6.70179 2.89496 6.66667 2.80656 6.66667H1.63656C1.54815 6.66667 1.46337 6.70179 1.40085 6.7643C1.33834 6.82681 1.30322 6.9116 1.30322 7.00001C1.30322 7.08841 1.33834 7.1732 1.40085 7.23571C1.46337 7.29822 1.54815 7.33334 1.63656 7.33334H2.80656C2.89496 7.33334 2.97975 7.29822 3.04226 7.23571C3.10477 7.1732 3.13989 7.08841 3.13989 7.00001Z" fill="white"/>
<path d="M12.3634 6.66667H11.1934C11.105 6.66667 11.0203 6.70179 10.9577 6.7643C10.8952 6.82681 10.8601 6.9116 10.8601 7.00001C10.8601 7.08841 10.8952 7.1732 10.9577 7.23571C11.0203 7.29822 11.105 7.33334 11.1934 7.33334H12.3634C12.4518 7.33334 12.5366 7.29822 12.5991 7.23571C12.6617 7.1732 12.6968 7.08841 12.6968 7.00001C12.6968 6.9116 12.6617 6.82681 12.5991 6.7643C12.5366 6.70179 12.4518 6.66667 12.3634 6.66667Z" fill="white"/>
<path d="M3.79989 9.72999L2.97322 10.5567C2.91861 10.6204 2.89007 10.7025 2.89332 10.7863C2.89656 10.8702 2.93133 10.9498 2.9907 11.0092C3.05006 11.0685 3.12964 11.1033 3.21353 11.1066C3.29743 11.1098 3.37945 11.0813 3.44322 11.0267L4.26989 10.2C4.32449 10.1362 4.35303 10.0542 4.34979 9.97031C4.34655 9.88642 4.31177 9.80684 4.25241 9.74747C4.19304 9.68811 4.11346 9.65333 4.02957 9.65009C3.94568 9.64685 3.86365 9.67539 3.79989 9.72999Z" fill="white"/>
<path d="M10.2001 4.27001L11.0267 3.44334C11.0813 3.37957 11.1099 3.29755 11.1066 3.21366C11.1034 3.12976 11.0686 3.05018 11.0092 2.99082C10.9499 2.93145 10.8703 2.89668 10.7864 2.89344C10.7025 2.8902 10.6205 2.91873 10.5567 2.97334L9.73005 3.80001C9.67545 3.86377 9.64691 3.9458 9.65015 4.02969C9.65339 4.11358 9.68817 4.19316 9.74753 4.25253C9.8069 4.31189 9.88648 4.34667 9.97037 4.34991C10.0543 4.35315 10.1363 4.32462 10.2001 4.27001Z" fill="white"/>
<path d="M7.00008 10.3333C8.84103 10.3333 10.3334 8.84095 10.3334 7.00001C10.3334 5.15906 8.84103 3.66667 7.00008 3.66667C5.15913 3.66667 3.66675 5.15906 3.66675 7.00001C3.66675 8.84095 5.15913 10.3333 7.00008 10.3333Z" fill="white"/>
</svg>
