<svg width="14" height="14" viewBox="0 0 14 14" fill="none" xmlns="http://www.w3.org/2000/svg">
<path d="M8.82393 6.97955C8.07107 6.31273 7.08778 5.90909 6.01073 5.90909C4.93368 5.90909 3.9504 6.31273 3.19619 6.98091C3.17536 7.00002 3.16261 7.0266 3.16062 7.05508C3.15862 7.08355 3.16753 7.1117 3.18547 7.13364L3.66774 7.71864C3.70659 7.765 3.77491 7.77045 3.82045 7.73091C4.40453 7.20727 5.17079 6.89091 6.01073 6.89091C6.85067 6.89091 7.61693 7.20727 8.20101 7.72955C8.24656 7.76909 8.31488 7.76364 8.35373 7.71727L8.83599 7.13227C8.8735 7.08727 8.86814 7.01909 8.82393 6.97955ZM10.3966 5.06909C9.2084 4.06136 7.6799 3.45455 6.01073 3.45455C4.34156 3.45455 2.81306 4.06136 1.62348 5.06909C1.60172 5.08777 1.58809 5.11446 1.58558 5.14333C1.58308 5.17219 1.59188 5.2009 1.61008 5.22318L2.09234 5.80818C2.12985 5.85455 2.19817 5.86 2.24238 5.82182C3.26451 4.95727 4.57868 4.43636 6.01073 4.43636C7.44278 4.43636 8.75695 4.95727 9.77774 5.82182C9.82329 5.86 9.89027 5.85455 9.92778 5.80818L10.41 5.22318C10.4476 5.17682 10.4422 5.10727 10.3966 5.06909V5.06909ZM11.96 3.17364C10.3337 1.81545 8.25191 1 5.98394 1C3.7307 1 1.66233 1.80455 0.0400474 3.14636C0.0289019 3.15548 0.0196606 3.16677 0.012868 3.17958C0.00607533 3.19238 0.00186862 3.20644 0.000495456 3.22093C-0.00087771 3.23542 0.00061047 3.25004 0.00487238 3.26393C0.00913429 3.27782 0.0160837 3.2907 0.0253115 3.30182L0.507574 3.88682C0.545084 3.93182 0.612065 3.93864 0.656272 3.90182C2.11244 2.70045 3.96513 1.98182 5.98394 1.98182C8.01748 1.98182 9.88223 2.71136 11.3424 3.92773C11.388 3.96591 11.4549 3.95909 11.4925 3.91273L11.9747 3.32773C12.0136 3.28136 12.0069 3.21182 11.96 3.17364ZM5.13998 9.12727C5.13998 9.35873 5.23031 9.58072 5.39109 9.74438C5.55188 9.90805 5.76995 10 5.99733 10C6.22472 10 6.44279 9.90805 6.60358 9.74438C6.76436 9.58072 6.85469 9.35873 6.85469 9.12727C6.85469 8.89581 6.76436 8.67383 6.60358 8.51016C6.44279 8.34649 6.22472 8.25455 5.99733 8.25455C5.76995 8.25455 5.55188 8.34649 5.39109 8.51016C5.23031 8.67383 5.13998 8.89581 5.13998 9.12727Z" fill="white"/>
<path d="M11.9583 11.6667L10.7917 10.5V9.5725C11.13 9.45 11.375 9.12917 11.375 8.75C11.375 8.26583 10.9842 7.875 10.5 7.875C10.0158 7.875 9.625 8.26583 9.625 8.75C9.625 9.12917 9.87 9.45 10.2083 9.5725V10.5L9.04167 11.6667H7.875V13.125H9.33333V12.2354L10.5 11.0104L11.6667 12.2354V13.125H13.125V11.6667H11.9583Z" fill="white"/>
</svg>
