<svg width="14" height="14" viewBox="0 0 14 14" fill="none" xmlns="http://www.w3.org/2000/svg">
<path d="M8.4158 7.00409L12.7158 2.71409C12.9041 2.52579 13.0099 2.27039 13.0099 2.00409C13.0099 1.73779 12.9041 1.4824 12.7158 1.29409C12.5275 1.10579 12.2721 1 12.0058 1C11.7395 1 11.4841 1.10579 11.2958 1.29409L7.0058 5.59409L2.7158 1.29409C2.52749 1.10579 2.2721 1 2.0058 1C1.7395 1 1.4841 1.10579 1.2958 1.29409C1.10749 1.4824 1.00171 1.73779 1.00171 2.00409C1.00171 2.27039 1.10749 2.52579 1.2958 2.71409L5.5958 7.00409L1.2958 11.2941C1.20207 11.3871 1.12768 11.4977 1.07691 11.6195C1.02614 11.7414 1 11.8721 1 12.0041C1 12.1361 1.02614 12.2668 1.07691 12.3887C1.12768 12.5105 1.20207 12.6211 1.2958 12.7141C1.38876 12.8078 1.49936 12.8822 1.62122 12.933C1.74308 12.9838 1.87379 13.0099 2.0058 13.0099C2.13781 13.0099 2.26852 12.9838 2.39038 12.933C2.51223 12.8822 2.62284 12.8078 2.7158 12.7141L7.0058 8.41409L11.2958 12.7141C11.3888 12.8078 11.4994 12.8822 11.6212 12.933C11.7431 12.9838 11.8738 13.0099 12.0058 13.0099C12.1378 13.0099 12.2685 12.9838 12.3904 12.933C12.5122 12.8822 12.6228 12.8078 12.7158 12.7141C12.8095 12.6211 12.8839 12.5105 12.9347 12.3887C12.9855 12.2668 13.0116 12.1361 13.0116 12.0041C13.0116 11.8721 12.9855 11.7414 12.9347 11.6195C12.8839 11.4977 12.8095 11.3871 12.7158 11.2941L8.4158 7.00409Z" fill="#575757"/>
</svg>
