<svg width="14" height="14" viewBox="0 0 14 14" fill="none" xmlns="http://www.w3.org/2000/svg">
<path fill-rule="evenodd" clip-rule="evenodd" d="M12.8055 8.55562C11.7772 8.95459 10.6551 9.04594 9.57576 8.81854C8.49646 8.59115 7.50656 8.05482 6.72662 7.27489C5.94669 6.49495 5.41036 5.50506 5.18297 4.42575C4.95558 3.34645 5.04692 2.22431 5.44589 1.196C4.21071 1.67736 3.18237 2.57491 2.53842 3.73367C1.89447 4.89242 1.67534 6.23966 1.91885 7.54277C2.16237 8.84588 2.85324 10.0231 3.8722 10.8711C4.89115 11.7191 6.17423 12.1847 7.49989 12.1875C8.64736 12.1878 9.76809 11.8411 10.715 11.1929C11.6618 10.5448 12.3906 9.62544 12.8055 8.55562Z" fill="#575757"/>
</svg>
