<svg width="14" height="14" viewBox="0 0 14 14" fill="none" xmlns="http://www.w3.org/2000/svg">
<path d="M6.41733 5.83333H7.584V8.74999H6.41733V5.83333ZM6.41675 9.33333H7.58341V10.5H6.41675V9.33333Z" fill="#575757"/>
<path d="M8.03138 2.45001C7.82838 2.06792 7.43289 1.83051 7.00005 1.83051C6.56722 1.83051 6.17172 2.06792 5.96872 2.45059L1.68822 10.5373C1.59323 10.7149 1.54618 10.9142 1.55171 11.1155C1.55723 11.3168 1.61514 11.5132 1.71972 11.6853C1.82279 11.8582 1.96917 12.0012 2.14441 12.1003C2.31965 12.1993 2.51769 12.2509 2.71897 12.25H11.2811C11.6941 12.25 12.0681 12.0388 12.281 11.6853C12.3854 11.5132 12.4432 11.3168 12.4487 11.1155C12.4542 10.9142 12.4073 10.715 12.3125 10.5373L8.03138 2.45001ZM2.71897 11.0833L7.00005 2.99659L11.2841 11.0833H2.71897Z" fill="#575757"/>
</svg>
