<svg width="14" height="14" viewBox="0 0 14 14" fill="none" xmlns="http://www.w3.org/2000/svg">
<path d="M11.6667 1.16666H4.66667C4.02325 1.16666 3.5 1.68991 3.5 2.33332V9.33332C3.5 9.97674 4.02325 10.5 4.66667 10.5H11.6667C12.3101 10.5 12.8333 9.97674 12.8333 9.33332V2.33332C12.8333 1.68991 12.3101 1.16666 11.6667 1.16666ZM4.66667 9.33332V2.33332H11.6667L11.6678 9.33332H4.66667Z" fill="#575757"/>
<path d="M2.33341 4.66666H1.16675V11.6667C1.16675 12.3101 1.69 12.8333 2.33341 12.8333H9.33341V11.6667H2.33341V4.66666ZM7.54433 6.71941L6.5375 5.71258L5.71266 6.53741L7.6225 8.44724L10.9487 4.45724L10.0515 3.70941L7.54433 6.71941Z" fill="#575757"/>
</svg>
