<svg width="14" height="14" viewBox="0 0 14 14" fill="none" xmlns="http://www.w3.org/2000/svg">
<path d="M10.1369 3.64437C9.28205 2.84397 8.17272 2.40521 6.99584 2.40625C4.87785 2.40811 3.04938 3.86034 2.54453 5.8748C2.50778 6.02145 2.37713 6.125 2.22595 6.125H0.659066C0.454043 6.125 0.298293 5.93887 0.336219 5.73738C0.927855 2.59558 3.68629 0.21875 7 0.21875C8.81694 0.21875 10.4669 0.933406 11.6844 2.09686L12.661 1.12027C13.0744 0.706863 13.7812 0.99966 13.7812 1.58432V5.25C13.7812 5.61244 13.4874 5.90625 13.125 5.90625H9.45932C8.87466 5.90625 8.58186 5.19939 8.99527 4.78595L10.1369 3.64437ZM0.875 8.09375H4.54068C5.12534 8.09375 5.41814 8.80061 5.00473 9.21405L3.86312 10.3557C4.71795 11.1561 5.82736 11.5948 7.00427 11.5938C9.12116 11.5919 10.9504 10.1406 11.4555 8.12525C11.4922 7.97861 11.6229 7.87506 11.7741 7.87506H13.341C13.546 7.87506 13.7017 8.06118 13.6638 8.26268C13.0721 11.4044 10.3137 13.7812 7 13.7812C5.18306 13.7812 3.53306 13.0666 2.31561 11.9031L1.33902 12.8797C0.925613 13.2931 0.21875 13.0003 0.21875 12.4157V8.75C0.21875 8.38756 0.512559 8.09375 0.875 8.09375Z" fill="#575757"/>
</svg>
