<svg width="14" height="14" viewBox="0 0 14 14" fill="none" xmlns="http://www.w3.org/2000/svg">
<path d="M8.82393 6.97955C8.07107 6.31273 7.08778 5.90909 6.01073 5.90909C4.93368 5.90909 3.9504 6.31273 3.19619 6.98091C3.17536 7.00002 3.16261 7.0266 3.16062 7.05508C3.15862 7.08355 3.16753 7.1117 3.18547 7.13364L3.66774 7.71864C3.70659 7.765 3.77491 7.77045 3.82045 7.73091C4.40453 7.20727 5.17079 6.89091 6.01073 6.89091C6.85067 6.89091 7.61693 7.20727 8.20101 7.72955C8.24656 7.76909 8.31488 7.76364 8.35373 7.71727L8.83599 7.13227C8.8735 7.08727 8.86814 7.01909 8.82393 6.97955ZM10.3966 5.06909C9.2084 4.06136 7.6799 3.45455 6.01073 3.45455C4.34156 3.45455 2.81306 4.06136 1.62348 5.06909C1.60172 5.08777 1.58809 5.11446 1.58558 5.14333C1.58308 5.17219 1.59188 5.2009 1.61008 5.22318L2.09234 5.80818C2.12985 5.85455 2.19817 5.86 2.24238 5.82182C3.26451 4.95727 4.57868 4.43636 6.01073 4.43636C7.44278 4.43636 8.75695 4.95727 9.77774 5.82182C9.82329 5.86 9.89027 5.85455 9.92778 5.80818L10.41 5.22318C10.4476 5.17682 10.4422 5.10727 10.3966 5.06909V5.06909ZM11.96 3.17364C10.3337 1.81545 8.25191 1 5.98394 1C3.7307 1 1.66233 1.80455 0.0400474 3.14636C0.0289019 3.15548 0.0196606 3.16677 0.012868 3.17958C0.00607533 3.19238 0.00186862 3.20644 0.000495456 3.22093C-0.00087771 3.23542 0.00061047 3.25004 0.00487238 3.26393C0.00913429 3.27782 0.0160837 3.2907 0.0253115 3.30182L0.507574 3.88682C0.545084 3.93182 0.612065 3.93864 0.656272 3.90182C2.11244 2.70045 3.96513 1.98182 5.98394 1.98182C8.01748 1.98182 9.88223 2.71136 11.3424 3.92773C11.388 3.96591 11.4549 3.95909 11.4925 3.91273L11.9747 3.32773C12.0136 3.28136 12.0069 3.21182 11.96 3.17364ZM5.13998 9.12727C5.13998 9.35873 5.23031 9.58072 5.39109 9.74438C5.55188 9.90805 5.76995 10 5.99733 10C6.22472 10 6.44279 9.90805 6.60358 9.74438C6.76436 9.58072 6.85469 9.35873 6.85469 9.12727C6.85469 8.89581 6.76436 8.67383 6.60358 8.51016C6.44279 8.34649 6.22472 8.25455 5.99733 8.25455C5.76995 8.25455 5.55188 8.34649 5.39109 8.51016C5.23031 8.67383 5.13998 8.89581 5.13998 9.12727Z" fill="white"/>
<path d="M11.7718 11.0833C11.7952 10.8908 11.8127 10.6983 11.8127 10.5C11.8127 10.3016 11.7952 10.1091 11.7718 9.91665H12.7577C12.8043 10.1033 12.8335 10.2987 12.8335 10.5C12.8335 10.7012 12.8043 10.8966 12.7577 11.0833H11.7718ZM11.2556 12.705C11.4306 12.3812 11.5647 12.0312 11.6581 11.6666H12.5185C12.2359 12.1532 11.7876 12.5218 11.2556 12.705V12.705ZM11.1827 11.0833H9.81766C9.7885 10.8908 9.771 10.6983 9.771 10.5C9.771 10.3016 9.7885 10.1062 9.81766 9.91665H11.1827C11.2089 10.1062 11.2293 10.3016 11.2293 10.5C11.2293 10.6983 11.2089 10.8908 11.1827 11.0833ZM10.5002 12.8216C10.2581 12.4716 10.0627 12.0837 9.94308 11.6666H11.0572C10.9377 12.0837 10.7422 12.4716 10.5002 12.8216ZM9.3335 9.33331H8.48183C8.7615 8.84542 9.20948 8.47625 9.74183 8.29498C9.56683 8.61873 9.43558 8.96873 9.3335 9.33331ZM8.48183 11.6666H9.3335C9.43558 12.0312 9.56683 12.3812 9.74183 12.705C9.21059 12.5217 8.76324 12.1531 8.48183 11.6666V11.6666ZM8.24266 11.0833C8.196 10.8966 8.16683 10.7012 8.16683 10.5C8.16683 10.2987 8.196 10.1033 8.24266 9.91665H9.2285C9.20516 10.1091 9.18766 10.3016 9.18766 10.5C9.18766 10.6983 9.20516 10.8908 9.2285 11.0833H8.24266ZM10.5002 8.1754C10.7422 8.5254 10.9377 8.91623 11.0572 9.33331H9.94308C10.0627 8.91623 10.2581 8.5254 10.5002 8.1754V8.1754ZM12.5185 9.33331H11.6581C11.5668 8.97207 11.4316 8.62337 11.2556 8.29498C11.7922 8.47873 12.2385 8.84915 12.5185 9.33331ZM10.5002 7.58331C8.88725 7.58331 7.5835 8.89581 7.5835 10.5C7.5835 11.2735 7.89079 12.0154 8.43777 12.5624C8.70861 12.8332 9.03014 13.0481 9.384 13.1946C9.73787 13.3412 10.1171 13.4166 10.5002 13.4166C11.2737 13.4166 12.0156 13.1094 12.5626 12.5624C13.1095 12.0154 13.4168 11.2735 13.4168 10.5C13.4168 10.117 13.3414 9.73769 13.1948 9.38382C13.0482 9.02995 12.8334 8.70842 12.5626 8.43758C12.2917 8.16675 11.9702 7.95191 11.6163 7.80533C11.2625 7.65875 10.8832 7.58331 10.5002 7.58331V7.58331Z" fill="white"/>
</svg>
