<svg width="14" height="14" viewBox="0 0 14 14" fill="none" xmlns="http://www.w3.org/2000/svg">
<path d="M7 13C10.3082 13 13 10.6711 13 7.8089C13 5.63513 11.446 3.77218 9.25 3V4.44248C9.93319 4.78374 10.5007 5.27439 10.8956 5.86524C11.2905 6.45609 11.4989 7.12638 11.5 7.8089C11.5 9.95607 9.48175 11.7022 7 11.7022C4.51825 11.7022 2.5 9.95607 2.5 7.8089C2.501 7.12637 2.7094 6.45605 3.10431 5.86519C3.49922 5.27433 4.06676 4.78369 4.75 4.44248V3C2.554 3.77218 1 5.63513 1 7.8089C1 10.6711 3.69175 13 7 13Z" fill="#575757"/>
<path d="M6 1H8V7H6V1Z" fill="#575757"/>
</svg>
