<svg width="14" height="14" viewBox="0 0 14 14" fill="none" xmlns="http://www.w3.org/2000/svg">
<path fill-rule="evenodd" clip-rule="evenodd" d="M6.24207 13H0.806062C0.659675 12.9987 0.516947 12.953 0.395855 12.8688C0.274762 12.7846 0.180722 12.6656 0.125579 12.5268C0.067599 12.386 0.0492213 12.2314 0.0725209 12.0805C0.0958206 11.9296 0.15987 11.7883 0.257437 11.6727L4.59855 6.55067H0.775452C0.364965 6.55067 0 6.22848 0 5.7914C0 5.35352 0.33357 5 0.743272 5H6.25777C6.55131 5 6.81974 5.18479 6.93747 5.47323C7.0552 5.76168 7.00418 6.09511 6.80561 6.32731L2.4951 11.459H6.24129C6.65177 11.459 6.98456 11.7715 6.98456 12.2086C6.98534 12.6457 6.65334 13 6.24207 13V13Z" fill="#575757"/>
<path fill-rule="evenodd" clip-rule="evenodd" d="M12.724 9H7.54925C7.44221 8.99938 7.33771 8.96623 7.24867 8.90465C7.15964 8.84308 7.08999 8.75579 7.04835 8.65359C7.00478 8.55033 6.99024 8.43641 7.00642 8.32496C7.02261 8.21351 7.06885 8.10906 7.13981 8.02367L11.5128 2.82395H7.23896C6.93637 2.82395 6.96715 2 7.26888 2H12.4813C12.6975 2 12.8625 2.10366 12.9514 2.31363C12.9951 2.417 13.0098 2.5311 12.9936 2.64273C12.9774 2.75436 12.9311 2.85896 12.8599 2.94444L8.55702 8.13884H12.724C13.0266 8.13973 13.0266 9 12.724 9Z" fill="#575757"/>
</svg>
